<?xml version="1.0" encoding="UTF-8" standalone="no"?>
<!-- Created with Inkscape (http://www.inkscape.org/) -->

<svg
   width="512"
   height="512"
   viewBox="0 0 512 512"
   version="1.1"
   id="svg1"
   xml:space="preserve"
   xmlns="http://www.w3.org/2000/svg"
   xmlns:svg="http://www.w3.org/2000/svg"><defs
     id="defs1" /><g
     id="layer1"><rect
       style="display:none;fill:#ebcd89;fill-opacity:1"
       id="rect11"
       width="512"
       height="512"
       x="0"
       y="0"
       ry="104.6518" /><path
       d="m 246.7793,244.48242 c -2.92773,0.0756 -5.55393,0.86994 -7.24219,2.30664 -1.10017,0.89892 -1.64987,1.95043 -2.10156,4.10156 -0.80053,3.85058 -0.29983,11.89968 1.05078,16.55079 0.55008,2.04827 1.00325,4.60296 0.90039,5.70312 -0.15206,1.8515 -0.30115,2.04739 -3.40039,3.64844 l -3.20117,1.75 -16.80274,-0.15235 -16.75195,-0.15234 -3.85156,-2.40234 c -2.20033,-1.35061 -6.65052,-5.04867 -10.35352,-8.59961 -3.60013,-3.45255 -7.0527,-6.3499 -7.70117,-6.50196 -0.64847,-0.20124 -2.04827,-0.25073 -3.14844,-0.15234 -1.74864,0.15206 -1.94951,0.29978 -2.10156,1.65039 -0.0984,1.35061 0.20206,1.64931 2.84961,3.20117 1.65025,0.94811 5.04793,3.50243 7.60156,5.75196 6.5026,5.75127 11.80383,9.75002 14.80469,11.15429 l 2.65039,1.19727 17.10156,-0.25 c 9.44979,-0.15206 18.40379,-0.39873 19.95117,-0.55078 l 2.80078,-0.34766 0.25,11.70313 c 0.25045,14.0025 0.3979,14.45022 6.05079,19.70507 4.30227,3.94897 6.94971,5.84976 10.60351,7.5 4.00263,1.8515 6.20315,2.14974 15,2.04688 6.5518,-0.0984 8.30015,-0.24867 9.60156,-1 v 0.0117 c 2.29872,-1.19856 3.39884,-2.99937 2.70118,-4.30078 -0.55009,-0.94811 -1.14855,-1.00281 -13.20118,-1.15039 l -12.60351,-0.15235 -2.54883,-1.39843 c -4.00263,-2.24953 -7.95265,-5.55012 -8.85156,-7.5 -0.75133,-1.4982 -0.84961,-3.69929 -0.84961,-15.30469 v -13.50196 l 1.65039,-0.25 c 0.84972,-0.15205 3.94983,-0.34794 6.7539,-0.5 4.55272,-0.20124 5.5979,-0.39845 8.45118,-1.80273 4.74949,-2.35238 5.15234,-3.20152 5.15234,-11.50195 0,-7.85321 -0.59823,-9.60307 -4.05078,-13.00196 -2.75041,-2.65202 -8.50297,-6.00184 -11.70508,-6.85156 -1.83808,-0.48803 -3.70235,-0.70161 -5.45898,-0.65625 z"
       style="display:inline;fill:#ebcd89"
       id="path76" /><path
       d="m 118.13477,184.18555 c -0.338,-0.003 -0.61699,0.24784 -1.12305,0.7539 -1.60105,1.60106 -1.29961,2.79956 1.5,5.84961 1.55186,1.69944 3.29949,4.49808 4.49805,6.99805 l 1.90039,4.19922 3.69921,1.69922 c 4.05183,1.85149 4.6023,2.45112 7.65235,8.30078 1.8515,3.64933 4.44946,6.60147 10.45117,12.0039 1.8023,1.60106 2.70028,2.90147 3.20117,4.49805 0.34884,1.25222 1.19826,3.35093 1.90039,4.65234 1.05097,2.10195 1.30234,2.3518 2,1.74805 0.4517,-0.34883 1.10002,-1.35108 1.49805,-2.25 l 0.01,0.006 c 0.84972,-2.10194 0.8485,-5.04962 -0.0996,-6.80273 -0.75134,-1.4982 -2.10056,-2.70146 -6.59961,-6.00196 -4.05183,-3.00085 -5.80147,-5.20115 -8.4043,-10.40234 -2.59836,-5.15199 -4.4988,-7.40104 -8.95313,-10.65234 -2.54916,-1.9007 -3.55048,-3.09953 -5.45117,-6.44922 -2.29872,-4.10102 -3.85086,-5.95225 -6.44922,-7.54883 -0.58697,-0.39831 -0.93224,-0.59875 -1.23046,-0.60156 z"
       style="display:inline;fill:#ebcd89"
       id="path75" /><path
       d="m 210.5,169.60352 c -5.08211,0.0816 -10.16973,2.43324 -14.36914,7.03515 -4.10102,4.44986 -6.85156,11.50146 -6.85156,17.60156 -0.0984,9.50346 5.40269,18.70359 13.70312,23.00586 5.34877,2.79961 9.69998,2.79924 15.25,0.0488 v -0.004 c 14.85223,-7.35233 18.25169,-28.65482 6.60156,-41.10547 -4.17481,-4.47669 -9.25187,-6.66365 -14.33398,-6.58203 z"
       style="display:inline;fill:#ebcd89"
       id="path74" /><path
       d="m 234.62305,512 -0.20118,-11.80078 -0.15234,-11.90039 -2.15039,-6.25391 c -2.59836,-7.60276 -4.15041,-10.44993 -11.85156,-21.84961 -6.1493,-9.15015 -11.85112,-15.6537 -15.25,-17.40234 -1.94989,-1.00178 -3.59999,-1.10087 -11.25196,-0.55078 -6.25215,0.45169 -10.00165,1.35178 -11.90234,2.80078 -0.70214,0.55008 -2.40032,2.84756 -3.69726,5.10156 -1.65025,2.8488 -4.35166,6.10195 -8.70313,10.60547 -3.45255,3.60013 -6.64987,7.24794 -7.10156,8.09766 -1.55186,3.05005 -3.20213,8.00076 -4.55274,13.55078 -0.80052,3.30049 -2.2009,7.50003 -3.45312,10 l -2.10156,4.40039 -0.15235,7.65234 L 151.90234,512 Z"
       style="display:inline;fill:#ebcd89"
       id="path72" /><path
       d="M 104.65234,0 C 46.675245,0 0,46.675245 0,104.65234 v 278.20899 l 2.8007813,-3.19727 c 1.5518588,-1.74863 5.2016135,-5.04967 8.0996097,-7.25 9.700236,-7.45071 20.151663,-18.90366 24.154296,-26.50195 1.050971,-1.94989 1.148726,-2.95238 1.300782,-11.40039 0.201249,-10.50076 -0.396882,-14.60228 -2.847657,-19.70508 -0.849721,-1.65025 -2.299004,-5.75029 -3.300781,-9.05078 -1.551859,-5.1028 -2.451014,-7.0524 -6.001953,-12.75 -4.199411,-6.80224 -6.649645,-11.85221 -8.800781,-18.25195 -1.198554,-3.45255 -1.199219,-3.84968 -1.199219,-21.75196 0,-17.20014 0.09783,-18.50212 1.09961,-22.65234 1.350609,-5.15199 2.451824,-7.45054 5.703124,-11.90039 2.652024,-3.60013 8.50224,-8.55202 11.802735,-10.05469 7.200267,-3.20211 18.90261,-4.15017 33.701172,-2.70117 4.60191,0.45169 9.449806,0.80078 10.849609,0.80078 2.549163,0 2.549039,4.3e-4 2.902344,1.80273 0.20125,1.00178 0.152421,7.24928 -0.04883,13.95313 -0.348833,11.55173 -0.299018,12.35332 0.751953,16.55273 2.652024,10.60363 7.400773,20.0044 15.052734,29.95508 2.750413,3.60014 6.900501,8.3485 9.199221,10.54883 4.00263,3.85058 4.25,4.20051 4.25,6.15039 0,1.94989 -2.04959,8.89831 -4.45117,14.94922 -0.59928,1.449 -2.95092,6.20415 -5.298832,10.50195 -2.298719,4.30227 -5.049371,9.69877 -6.001953,12.00196 -1.699442,3.89977 -1.748447,4.24944 -1.050781,5.34961 1.301414,1.99908 3.599896,2.25 19.802736,2.25 11.35048,0 17.95184,0.25062 25.75586,1.00195 5.75127,0.55008 11.64902,1.00195 13.04883,1.00195 4.85235,0 5.04908,0.49924 2.70117,7.85156 -0.80053,2.54917 -1.49805,5.34987 -1.49805,6.15039 0,2.35239 1.30296,4.94992 2.75196,5.5 0.75133,0.29964 6.30028,0.50196 12.40039,0.50196 6.1001,0 11.60096,0.15124 12.2539,0.29883 l 1.09961,0.30078 v 15.35156 c 0,8.55088 0.20232,16.09979 0.50195,17.10156 0.64848,2.24953 2.59757,5.00016 8,11.20313 11.00166,12.6519 11.5528,12.95287 16.55274,9.0039 3.20211,-2.54916 5.75058,-2.45158 10.29883,0.29883 4.99993,3.05005 9.80357,6.8028 15.15234,11.80274 2.59836,2.45077 6.64957,5.84975 9.00195,7.5 7.49991,5.40243 19.40075,12.15039 21.4043,12.15039 0.25045,0 0.70232,-0.55075 1.00195,-1.19922 0.64848,-1.449 0.15189,-1.99759 -4.15039,-4.30078 -9.99987,-5.34877 -20.304,-12.65284 -27.45507,-19.45508 -3.09925,-2.90247 -7.75069,-6.75295 -10.35352,-8.55078 l -4.69922,-3.25196 -0.39844,-2.75 c -0.25044,-1.49819 -0.55005,-3.30074 -0.64843,-3.94921 -0.15206,-0.64848 -1.49893,-2.35215 -3.05079,-3.75196 -4.40066,-4.05183 -4.35148,-3.94807 -4.55273,-16.55078 l -0.15234,-11.00195 1.80273,-7 c 0.94811,-3.85058 2.10161,-7.30278 2.54883,-7.75 0.59928,-0.59928 2.40192,-0.75037 10.35351,-0.70117 h 9.60157 l 10.95312,2.79882 c 9.70024,2.49997 11.80213,3.25188 18.75196,6.60157 9.3514,4.49905 12.40114,5.75032 20.0039,8.40234 6.25216,2.15114 20.50061,9.20035 23.30469,11.55273 0.94811,0.80053 2.75169,2.9997 4.00391,4.9004 2.49996,3.85057 3.55095,4.60292 4.55273,3.20312 2.24952,-3.05005 -0.64966,-7.70098 -7.35352,-11.90039 -5.25038,-3.34969 -17.69993,-9.25427 -25.95117,-12.35352 -4.55271,-1.69944 -12.50157,-5.20083 -17.75195,-7.75 -8.55088,-4.2486 -10.20105,-4.85215 -16.25195,-6.25195 -3.69853,-0.84972 -8.45173,-1.99874 -10.5,-2.54883 -3.14844,-0.84972 -5.2495,-1.00158 -13.40235,-1.05078 -9.60184,0 -9.65204,-6.3e-4 -11.55273,1.30078 -1.00178,0.70214 -2.84934,2.65249 -4.10156,4.30274 -2.79961,3.75219 -4.19789,3.94841 -8.09766,1.09961 -1.449,-1.05097 -3.69924,-2.54909 -5.10352,-3.34961 -4.15021,-2.35239 -6.20231,-4.30202 -9.65039,-8.95313 l -3.30078,-4.44922 -13.34961,-8.80273 c -7.35232,-4.85235 -15.30406,-9.90098 -17.70117,-11.30078 -5.89885,-3.39889 -10.35423,-7.20067 -21.75391,-18.50196 -5.70207,-5.59921 -11.55117,-10.90175 -14.00195,-12.65039 -7.05268,-4.99993 -9.90037,-7.90394 -15.101563,-15.65429 -5.102798,-7.5491 -8.899646,-14.95008 -11.050782,-21.70313 -2.799607,-8.45249 -2.903275,-9.802 -2.849609,-25.95117 0.09839,-9.15015 -0.0988,-15.95408 -0.398437,-17.30469 -0.348833,-1.3998 -0.599244,-11.94954 -0.648438,-27.5039 -0.09839,-24.40488 -0.09728,-25.40122 0.949219,-29.6543 0.599277,-2.40158 1.649424,-5.59926 2.351562,-7.05273 3.251301,-6.90063 11.153249,-14.85328 18.353518,-18.60547 2.54916,-1.30142 6.65115,-3.69778 9.05273,-5.29883 5.34877,-3.60013 7.49851,-4.40039 11.80079,-4.40039 4.55271,0 15.55116,-1.2527 20.05468,-2.25 2.04828,-0.50089 4.64984,-1.05034 5.75,-1.30078 1.10017,-0.20125 7.2006,-0.39844 13.50196,-0.39844 l 11.5039,-0.0488 2.5,1.39844 c 1.39981,0.80053 4.19921,2.45147 6.25196,3.69922 7.40151,4.49905 14.30192,8.40342 17.75,10 l 3.50195,1.65039 h 8.50195 8.5 l 3.75391,-1.69922 3.69726,-1.69922 12.05274,0.54883 c 10.05354,0.45169 13.203,0.75225 19.2539,2 4.00264,0.84972 9.5035,1.74919 12.25391,2.04883 9.85229,1.10016 14.65089,2.29825 34.35547,8.59961 5.95252,1.90069 12.00254,3.94898 13.40234,4.55273 l 2.59766,1.14844 -0.25,2.10351 c -0.20125,1.74864 -0.75081,2.69995 -3.59961,5.75 -4.05183,4.40066 -6.80324,8.90046 -8.4043,13.90039 -1.69944,5.25039 -2.24838,9.30158 -2.84765,20.5 -0.29964,5.34877 -0.75151,12.35352 -1.00196,15.50196 -0.64847,7.60276 -0.59927,16.30076 0,21.50195 0.29964,2.35239 1.64939,8.84907 3,14.50195 3.69853,15.5007 4.00359,17.70235 4.5,30.25586 0.20125,6.35055 0.70232,12.40179 1.00196,13.50196 0.80052,2.75041 3.54967,7.54792 5.75,10.10156 1.00177,1.19855 3.25295,3.10064 5.05078,4.25 2.90247,1.94988 3.20117,2.24855 3.20117,3.84961 0,2.20033 3.85129,9.30268 8.25195,15.15234 1.8515,2.40158 5.84909,6.64909 9.44922,9.90039 6.69938,6.1001 8.3493,8.00131 12.30274,14.50391 1.44899,2.35238 3.4002,5.40293 4.45117,6.80273 2.20033,3.20211 13.10238,14.80197 23.65234,25.30274 6.75305,6.75304 7.90235,8.09897 7.90235,9.40039 0,0.89891 -0.30026,1.65068 -0.75196,1.80273 -1.10016,0.4517 -9.00135,-0.59787 -15.95117,-2.04687 -3.34969,-0.70214 -7.19981,-1.49863 -8.59961,-1.80274 -4.10102,-0.80052 -6.50365,-4.19949 -8.85156,-12.70117 -0.70214,-2.40158 -1.4976,-4.60307 -1.74805,-4.85351 -0.94811,-0.94811 -4.85313,-1.34925 -13.25195,-1.39844 -7.90241,0 -8.6486,-0.0997 -11.70313,-1.30274 -3.2021,-1.30141 -3.34901,-1.29987 -4.00195,-0.39648 -0.89891,1.19855 -0.8006,2.49941 0.20117,4.24805 1.65025,2.75041 3.34796,3.14901 14.34961,3.45312 8.15285,0.20125 10.00114,0.39625 10.30078,1 0.25045,0.39803 1.64932,3.39946 3.20117,6.60156 3.05006,6.25216 5.20253,8.7521 9.00391,10.40235 2.45078,1.10016 12.3024,3.35023 18,4.10156 2.20033,0.29964 4.24797,0.70166 4.44922,0.89844 0.20125,0.20125 0.59953,2.10138 0.80078,4.24804 0.4517,3.75219 1.4977,6.14951 2.95117,6.65039 0.34884,0.0984 1.10031,-0.8486 1.65039,-2.19921 1.00178,-2.15114 1.05196,-2.90238 0.70313,-8.55079 l -0.34961,-6.15039 h 2.59961 c 3.14844,0 5.5992,1.00319 21.25195,8.80274 11.94976,5.95252 11.251,5.70036 25.95117,9.14844 2.40158,0.55008 5.40301,1.49976 6.60157,2.10351 1.94988,0.89892 2.19921,1.25059 2.19921,2.65039 0,1.449 -0.50098,1.9998 -4.35156,5.10352 -2.45077,1.90069 -5.84809,4.55303 -7.65039,5.80078 -2.70122,1.90069 -23.10467,14.75301 -34.2539,21.55078 -1.65025,1.00178 -6.14943,3.05007 -10,4.55273 -3.85058,1.449 -14.20259,6.25364 -23.00391,10.6543 -10.8004,5.40244 -17.6519,8.55059 -21.05078,9.60156 -2.75041,0.84973 -9.05158,2.90249 -13.95313,4.55274 l -8.95312,2.95117 -1.35156,6.65039 c -1.94989,9.8031 -3.09965,14.0026 -5.59961,20.40234 -1.25222,3.14844 -2.99989,8.2511 -3.84961,11.25196 -0.89892,3.05005 -2.04953,6.69887 -2.59961,8.15234 L 319,512 h 88.34766 C 465.32475,512 512,465.32475 512,407.34766 V 104.65234 C 512,46.675245 465.32475,0 407.34766,0 Z"
       style="display:inline;fill:#ebcd89"
       id="path69" /><g
       id="g1"
       transform="matrix(0.44722158,0,0,0.44722158,-0.0476196,-0.04121219)"><g
         fill="#fbf6e5"
         id="g2"
         style="display:inline"><path
           d="m 713.39943,1144.9385 2.07881,-5.6992 c 1.23,-3.25 3.8028,-11.4089 5.8128,-18.2289 1.9,-6.71 5.80783,-18.1197 8.60783,-25.1597 5.59,-14.31 8.16088,-23.7002 12.52088,-45.6202 l 3.02214,-14.8705 20.01943,-6.5989 c 10.96,-3.69 25.04958,-8.28 31.19958,-10.18 7.6,-2.35 22.92014,-9.3894 47.07014,-21.46937 19.68,-9.84 42.82738,-20.58331 51.43738,-23.82331 8.61,-3.36 18.67028,-7.94004 22.36028,-10.18004 24.93,-15.2 70.5527,-43.93815 76.5927,-48.18815 4.03,-2.79 11.6265,-8.72071 17.1065,-12.97071 8.61,-6.94 9.7302,-8.1716 9.7302,-11.4116 0,-3.13 -0.5575,-3.91635 -4.9175,-5.92635 -2.68,-1.35 -9.3913,-3.47352 -14.7613,-4.70352 -32.86999,-7.71 -31.30754,-7.14616 -58.02754,-20.45616 -35,-17.44 -40.47997,-19.68316 -47.51997,-19.68316 h -5.8128 l 0.78174,13.75244 c 0.78,12.63 0.66779,14.30979 -1.57221,19.11979 -1.23,3.02 -2.91032,5.13751 -3.69032,4.91751 -3.25,-1.12 -5.5889,-6.48046 -6.5989,-14.87046 -0.45,-4.8 -1.34057,-9.04875 -1.79057,-9.49875 -0.45,-0.44 -5.02858,-1.33893 -9.94858,-2.00893 -12.74,-1.68 -34.7685,-6.71121 -40.2485,-9.17121 -8.5,-3.69 -13.31299,-9.27993 -20.13299,-23.25993 -3.47,-7.16 -6.59791,-13.87128 -7.15791,-14.76128 -0.67,-1.35 -4.80283,-1.78603 -23.03283,-2.23603 -24.6,-0.68 -28.39613,-1.57128 -32.08613,-7.72128 -2.24,-3.91 -2.45983,-6.81875 -0.44983,-9.49875 1.46,-2.02 1.78848,-2.02345 8.94848,0.88655 6.83,2.69 8.49852,2.91295 26.16852,2.91295 18.78,0.11 27.51174,1.00694 29.63174,3.12694 0.56,0.56 2.33868,5.4826 3.90868,10.8526 5.25,19.01 10.62234,26.61018 19.79234,28.40018 3.13,0.68 11.73897,2.46096 19.22897,4.03096 15.54,3.24 33.20726,5.58687 35.66726,4.57687 1.01,-0.34 1.68139,-2.02096 1.68139,-4.03096 0,-2.91 -2.56986,-5.91954 -17.66986,-21.01954 -23.59,-23.48 -47.9673,-49.41763 -52.8873,-56.57763 -2.35,-3.13 -6.71295,-9.9511 -9.95295,-15.2111 -8.84,-14.54 -12.52926,-18.79114 -27.50926,-32.43114 -8.05,-7.27 -16.98872,-16.76755 -21.12872,-22.13755 -9.84,-13.08 -18.45159,-28.96107 -18.45159,-33.88107 0,-3.58 -0.66792,-4.24783 -7.15792,-8.60783 -4.02,-2.57 -9.05368,-6.82312 -11.29368,-9.50312 -4.92,-5.71 -11.06716,-16.43738 -12.85716,-22.58738 -0.67,-2.46 -1.7904,-15.99075 -2.2404,-30.19075 -1.11,-28.07 -1.79213,-32.99295 -10.06213,-67.65295 -3.02,-12.64 -6.03808,-27.16677 -6.70808,-32.42677 -1.34,-11.63 -1.45,-31.07897 0,-48.07897 0.56,-7.04 1.57039,-22.7028 2.24039,-34.6628 1.34,-25.04 2.56744,-34.09858 6.36744,-45.83858 3.58,-11.18 9.73225,-21.24166 18.79225,-31.08166 6.37,-6.82 7.59883,-8.94716 8.04883,-12.85716 l 0.559,-4.70352 -5.80843,-2.56794 c -3.13,-1.35 -16.65802,-5.93004 -29.96802,-10.18004 -44.06,-14.09 -54.78979,-16.76897 -76.81979,-19.22897 -6.15,-0.67 -18.45008,-2.68124 -27.40008,-4.58124 -13.53,-2.79 -20.57227,-3.46205 -43.05227,-4.47205 l -26.95025,-1.2272 -8.26719,3.7995 -8.39384,3.7995 h -19.00624 -19.01061 l -7.83046,-3.69032 c -7.71,-3.57 -23.1395,-12.30028 -39.6895,-22.36028 -4.59,-2.79 -10.84954,-6.48155 -13.97954,-8.27155 l -5.59007,-3.12695 -25.72306,0.10918 c -14.09,0 -27.73075,0.44092 -30.19075,0.89092 -2.46,0.56 -8.27716,1.78858 -12.85716,2.90858 -10.07,2.23 -34.66284,5.03106 -44.84284,5.03106 -9.62,0 -14.42688,1.7894 -26.38688,9.8394 -5.37,3.58 -14.54217,8.93833 -20.24217,11.84833 -16.1,8.39 -33.76897,26.17235 -41.03897,41.60235 -1.57,3.25 -3.91816,10.40011 -5.25816,15.77011 -2.34,9.51 -2.34248,11.73784 -2.12248,66.30784 0.11,34.78 0.66992,58.36951 1.44992,61.49951 0.67,3.02 1.11092,18.23376 0.89092,38.69376 -0.12,36.11 0.11181,39.12755 6.37181,58.02755 4.81,15.1 13.29985,31.6488 24.70985,48.5288 11.63,17.33 17.99752,23.82345 33.76752,35.00345 5.48,3.91 18.55876,15.76662 31.30876,28.28662 25.49,25.27 35.45234,33.77089 48.64234,41.37089 5.36,3.13 23.14032,14.41887 39.58032,25.26887 l 29.8501,19.68316 7.38064,9.94857 c 7.71,10.4 12.29855,14.75944 21.57855,20.01944 3.14,1.79 8.1716,5.13982 11.4116,7.48982 8.72,6.37 11.84659,5.93125 18.10659,-2.45875 2.8,-3.69 6.93121,-8.05104 9.17121,-9.62104 4.25,-2.91 4.36223,-2.90858 25.83223,-2.90858 18.23,0.11 22.92802,0.44957 29.96802,2.34957 4.58,1.23 15.20829,3.79926 23.47829,5.69926 13.53,3.13 17.21983,4.47954 36.33983,13.97954 11.74,5.7 29.51386,13.52922 39.69386,17.32922 18.45,6.93 46.28755,20.1328 58.02755,27.6228 14.99,9.39 21.47267,19.78961 16.44267,26.60961 -2.24,3.13 -4.59004,1.44772 -10.18004,-7.16228 -2.8,-4.25 -6.83285,-9.16741 -8.95285,-10.95741 -6.27,-5.26 -38.12993,-21.02224 -52.10993,-25.83224 -17,-5.93 -23.8193,-8.72787 -44.7293,-18.78787 -15.54,-7.49 -20.23989,-9.17128 -41.92989,-14.76128 l -24.4915,-6.25826 h -21.46936 c -17.78,-0.11 -21.81075,0.22784 -23.15075,1.56784 -1,1 -3.57925,8.71922 -5.69925,17.32922 l -4.03097,15.65219 0.34065,24.60068 c 0.45,28.18 0.34004,27.94801 10.18004,37.00801 3.47,3.13 6.48163,6.93947 6.82163,8.38947 0.22,1.45 0.88992,5.48057 1.44992,8.83057 l 0.89092,6.14907 10.50759,7.27146 c 5.82,4.02 16.22075,12.62979 23.15075,19.11979 15.99,15.21 39.03032,31.5421 61.39032,43.5021 9.62,5.15 10.73039,6.37667 9.28039,9.61667 -0.67,1.45 -1.68039,2.68148 -2.24039,2.68148 -4.48,0 -31.09061,-15.08861 -47.86061,-27.16861 -5.26,-3.69 -14.31862,-11.29021 -20.12862,-16.77021 -11.96,-11.18 -22.70107,-19.57125 -33.88107,-26.39125 -10.17,-6.15 -15.86846,-6.36818 -23.02846,-0.66818 -11.18,8.83 -12.41238,8.15701 -37.01238,-20.13299 -12.08,-13.87 -16.43823,-20.0205 -17.88823,-25.0505 -0.67,-2.24 -1.12238,-19.11958 -1.12238,-38.23958 v -34.32652 l -2.45876,-0.67256 c -1.46,-0.33 -13.76007,-0.66818 -27.40007,-0.66818 -13.64,0 -26.04763,-0.45238 -27.72763,-1.12238 -3.24,-1.23 -6.15344,-7.03816 -6.15344,-12.29816 0,-1.79 1.55968,-8.05245 3.34968,-13.75245 5.25,-16.44 4.8101,-17.55631 -6.0399,-17.55631 -3.13,0 -16.31755,-1.01039 -29.17755,-2.24039 -17.45,-1.68 -32.21082,-2.2404 -57.59082,-2.2404 -36.23,0 -41.36947,-0.56106 -44.27947,-5.03106 -1.56,-2.46 -1.45042,-3.24188 2.34958,-11.96188 2.13,-5.15 8.28053,-17.2167 13.42053,-26.8367 5.25,-9.61 10.50833,-20.24267 11.84833,-23.48267 5.37,-13.53 9.95294,-29.06687 9.95294,-33.42687 0,-4.36 -0.55311,-5.14244 -9.50311,-13.75244 -5.14,-4.92 -14.41972,-15.53748 -20.56972,-23.58748 -17.11,-22.25 -27.72833,-43.27039 -33.65833,-66.98039 -2.35,-9.39 -2.46139,-11.18238 -1.68139,-37.01238 0.45,-14.99 0.55918,-28.95958 0.10918,-31.19958 -0.79,-4.03 -0.78972,-4.03097 -6.48972,-4.03097 -3.13,0 -13.97003,-0.78057 -24.26003,-1.79057 -33.09,-3.24 -59.256768,-1.1201 -75.356768,6.0399 -7.38,3.36 -20.461245,14.43256 -26.391245,22.48256 -7.27,9.95 -9.732348,15.08961 -12.752348,26.60961 -2.24,9.28 -2.458757,12.19128 -2.458757,50.65128 0,40.03 0.0015,40.91797 2.681487,48.63797 4.81,14.31 10.288794,25.60188 19.678794,40.81188 7.94,12.74 9.950535,17.09936 13.420535,28.50936 2.24,7.38 5.48064,16.5478 7.38064,20.2378 5.48,11.41 6.817439,20.58111 6.367439,44.06111 -0.34,18.89 -0.558584,21.13159 -2.908584,25.49159 -8.95,16.99 -32.319685,42.59911 -54.009685,59.25911 -6.48,4.92 -14.6409538,12.30121 -18.1109538,16.21121 l -6.26262544,7.14917 v 54.75212 c 0,129.63846 104.36716124,234.00556 234.00558124,234.00556 h 105.65232 l 0.44546,-16.8794 0.34064,-17.1108 4.69916,-9.8394 c 2.8,-5.59 5.93128,-14.9803 7.72128,-22.3603 3.02,-12.41 6.71004,-23.4799 10.18004,-30.2999 1.01,-1.9 8.1593,-10.0566 15.8793,-18.1066 9.73,-10.07 15.77043,-17.3441 19.46043,-23.7141 2.9,-5.04 6.69719,-10.17728 8.26719,-11.40728 4.25,-3.24 12.63397,-5.25263 26.61397,-6.26263 17.11,-1.23 20.79969,-1.00844 25.15969,1.23156 7.6,3.91 20.34942,18.45215 34.09942,38.91215 17.22,25.49 20.69043,31.8563 26.50043,48.8563 l 4.80833,13.9839 0.34065,26.6096 0.44982,26.3869 z M 470.79038,379.33037 c 11.36375,-0.1825 22.7162,4.70761 32.0512,14.71761 26.05,27.84 18.44872,75.47298 -14.76128,91.91298 v 0.009 c -12.41,6.15 -22.13943,6.15082 -34.09943,-0.10918 -18.56,-9.62 -30.86057,-30.19174 -30.64057,-51.44174 0,-13.64 6.15028,-29.40759 15.32028,-39.35759 9.39,-10.29 20.76605,-15.54831 32.1298,-15.73081 z M 264.25913,411.9362 c 0.66685,0.006 1.43886,0.45449 2.75136,1.34511 5.81,3.57 9.28064,7.70939 14.42064,16.87939 4.25,7.49 6.48897,10.17064 12.18897,14.42064 9.96,7.27 14.20944,12.29894 20.01944,23.81894 5.82,11.63 9.73224,16.54993 18.79224,23.25993 10.06,7.38 13.07691,10.07054 14.75691,13.42054 2.12,3.92 2.12273,10.5111 0.22273,15.2111 l -0.0218,-0.0131 c -0.89,2.01 -2.33968,4.25106 -3.34968,5.03106 -1.56,1.35 -2.12205,0.79132 -4.47205,-3.90868 -1.57,-2.91 -3.46933,-7.60277 -4.24933,-10.40277 -1.12,-3.57 -3.12791,-6.47776 -7.15791,-10.05776 -13.42,-12.08 -19.22912,-18.68107 -23.36912,-26.84107 -6.82,-13.08 -8.05085,-14.42078 -17.11085,-18.56078 l -8.27156,-3.7995 -4.24932,-9.38957 c -2.68,-5.59 -6.58776,-11.84783 -10.05776,-15.64783 -6.26,-6.82 -6.93405,-9.49989 -3.35405,-13.07989 1.13157,-1.13157 1.75541,-1.69289 2.51117,-1.68576 z m 287.65278,134.82551 c 3.92789,-0.10143 8.09644,0.37614 12.20644,1.46739 7.16,1.9 20.02289,9.39029 26.17289,15.32029 7.72,7.6 9.05766,11.51273 9.05766,29.07273 0,18.56 -0.90079,20.45869 -11.52079,25.71869 -6.38,3.14 -8.71706,3.58096 -18.89706,4.03096 -6.27,0.34 -13.20192,0.77802 -15.10192,1.11802 l -3.69032,0.559 v 30.19075 c 0,25.95 0.21975,30.87171 1.89975,34.22171 2.01,4.36 10.84234,11.74021 19.79234,16.77021 l 5.69925,3.12695 28.18182,0.34064 c 26.95,0.33 28.28819,0.45231 29.51819,2.57231 1.56,2.91 -0.8999,6.93666 -6.0399,9.61666 v -0.0262 c -2.91,1.68 -6.81936,2.01603 -21.46936,2.23603 -19.67,0.23 -24.59042,-0.43687 -33.54042,-4.57687 -8.17,-3.69 -14.08976,-7.94021 -23.70976,-16.77021 -12.64,-11.75 -12.96972,-12.75111 -13.52972,-44.06111 l -0.559,-26.16852 -6.26263,0.77737 c -3.46,0.34 -23.48138,0.89157 -44.61138,1.23157 l -38.23957,0.559 -5.92635,-2.67712 c -6.71,-3.14 -18.5637,-12.08132 -33.1037,-24.94132 -5.71,-5.03 -13.3073,-10.74153 -16.9973,-12.86153 -5.92,-3.47 -6.59181,-4.13791 -6.37181,-7.15791 0.34,-3.02 0.78915,-3.35032 4.69915,-3.69032 2.46,-0.22 5.59,-0.10935 7.04,0.34065 1.45,0.34 9.17003,6.81855 17.22003,14.53855 8.28,7.94 18.23075,16.20897 23.15075,19.22897 l 8.61221,5.3717 37.45783,0.34065 37.57139,0.34064 7.15791,-3.91304 c 6.93,-3.58 7.26337,-4.01801 7.60337,-8.15801 0.23,-2.46 -0.7833,-8.17235 -2.0133,-12.75235 -3.02,-10.4 -4.13958,-28.39801 -2.34958,-37.00801 1.01,-4.81 2.23916,-7.16121 4.69916,-9.17121 3.775,-3.2125 9.64725,-4.98867 16.19373,-5.15771 z"
           id="path71" /><path
           d="M 713.39943,1144.9385 H 524.73019 v 0.1136 h 94.25819 94.37174 z"
           id="path70" /><path
           d="m 348.31,1130.24 c 0.78,-14.31 1.01,-15.32 6.15,-28.4 3.02,-7.49 7.27,-20.57 9.5,-29.07 5.93,-22.7 7.04,-24.82 24.04,-42.6 8.16,-8.5 16.66,-17.89 19.01,-21.02 7.72,-10.29 6.93,-10.06 26.72,-10.4 10.4,-0.22 19.12,0.11 21.47,0.78 5.93,1.79 11.74,7.94 23.26,24.82 5.59,8.27 13.42,19.34 17.33,24.71 6.15,8.39 7.83,11.74 12.52,25.72 5.14,15.54 5.37,16.33 5.37,29.97 0.11,7.72 -0.34,19.9 -0.89,27.17 l -1.01,13.08 h -82.19 -82.07 l 0.78,-14.76 z"
           id="path2" /></g><g
         fill="#ebcd89"
         id="g3"
         transform="translate(-1158.9541,4.7433271)"
         style="display:none"><path
           d="m 726.81,1142.99 c 0,-3.69 8.72,-34.22 13.98,-48.86 2.91,-7.94 6.71,-21.02 8.5,-29.07 5.26,-23.26 5.03,-22.7 9.73,-25.05 2.24,-1.12 10.96,-4.25 19.23,-6.82 26.5,-8.27 33.66,-11.07 48.08,-18.67 26.17,-13.98 34.1,-17.67 54.79,-25.38 22.92,-8.61 33.1,-13.42 49.76,-23.37 35.45,-21.25 84.87,-54.01 91.58,-60.72 5.37,-5.37 23.03,-34.44 25.72,-42.15 1.57,-4.81 1.79,-16.33 1.79,-107.34 0,-62.06 -0.45,-105 -1.12,-109.8 -0.67,-4.25 -2.68,-13.08 -4.47,-19.57 -8.16,-29.07 -12.97,-61.39 -11.96,-79.84 0.78,-12.64 1.01,-12.97 12.19,-25.38 13.87,-15.32 22.92,-28.51 27.28,-40.14 2.24,-5.81 8.72,-21.69 14.54,-35.22 12.08,-28.63 16.21,-39.58 18.79,-50.09 1.79,-7.16 1.79,-7.72 -0.22,-12.3 -2.68,-6.04 -6.26,-8.39 -21.25,-13.53 -22.25,-7.72 -18.79,-7.49 -118.75,-7.16 -89.45,0.45 -90.01,0.45 -99.52,2.91 -9.62,2.57 -29.85,4.47 -34.77,3.24 -1.68,-0.45 -5.59,-4.58 -10.4,-10.85 -10.4,-13.87 -21.02,-23.03 -38.13,-33.1 -7.94,-4.7 -20.35,-12.19 -27.4,-16.66 -18.45,-11.63 -23.48,-13.87 -50.88,-22.7 -50.65,-16.21 -69.66,-21.25 -92.25,-24.26 -7.72,-1.01 -21.25,-3.02 -30.19,-4.58 -9.95,-1.79 -23.03,-3.02 -33.88,-3.47 -15.54,-0.56 -18.23,-1.01 -21.25,-3.02 -5.26,-3.47 -24.6,-29.63 -31.87,-43.16 -4.03,-7.6 -8.83,-19.12 -13.31,-32.43 -3.8,-11.41 -11.29,-30.75 -16.66,-43.05 -5.26,-12.3 -11.85,-28.07 -14.54,-35.11 -7.38,-19.46 -13.64,-28.4 -23.82,-33.66 -4.14,-2.12 -12.52,-1.68 -17.78,1.01 -13.87,7.04 -47.3,32.87 -63.74,49.09 -3.58,3.47 -11.41,12.3 -17.44,19.57 -6.04,7.16 -16.66,18.56 -23.71,25.16 -29.63,27.73 -36,38.91 -36.23,63.4 -0.11,10.73 -1.34,11.85 -45.06,39.14 -9.5,6.04 -18.79,15.1 -28.4,27.84 -9.62,12.75 -12.75,19.12 -16.55,33.66 -4.14,15.65 -5.03,29.52 -5.03,80.84 v 47.52 l -18.11,-1.01 c -61.72,-3.47 -80.62,0.67 -102.76,22.14 -18.11,17.67 -25.05,29.07 -28.51,46.96 -2.24,12.08 -3.47,70.22 -1.68,83.53 1.9,14.65 7.04,27.84 19.46,50.32 7.83,14.31 12.52,24.49 15.43,33.1 2.24,6.82 5.81,16.44 8.05,21.47 5.26,11.85 6.37,18.67 6.37,37.91 0,20.46 -1.12,25.16 -8.05,35.89 -11.74,18 -25.27,31.64 -46.18,46.52 -6.15,4.36 -11.29,8.27 -11.52,8.83 -0.22,0.45 -1.34,0.89 -2.57,0.89 C 0,836.41 0,829.59 0,418.22 V 0.03 H 572.5 1145 v 572.5 572.5 H 935.9 c -199.93,0 -209.1,-0.11 -209.1,-2.01 z"
           id="path3" /></g><g
         fill="#dcb46f"
         id="g4"
         style="display:inline"><path
           d="m 1016.3,891.85 c 1.79,-2.12 -5.7,-5.7 -18.45,-8.61 -32.87,-7.72 -31.31,-7.16 -58.03,-20.46 -40.14,-19.9 -46.4,-22.25 -46.4,-17.44 0,3.02 -4.03,3.02 -4.81,0 -0.34,-1.23 -2.12,-3.13 -3.91,-4.14 -3.69,-2.12 -6.04,-6.71 -2.8,-5.48 5.26,2.01 1.79,-2.35 -13.98,-18.11 -40.92,-40.7 -50.76,-52.33 -67.87,-79.73 -2.57,-4.14 -9.17,-11.63 -15.65,-17.78 -20.13,-19.12 -25.94,-25.38 -32.87,-35.78 -9.39,-14.09 -16.55,-28.96 -14.54,-30.3 1.23,-0.67 1.12,-1.01 -0.45,-1.68 -1.01,-0.34 -1.9,-1.23 -1.9,-1.9 0,-0.67 2.46,-0.78 7.49,-0.22 13.75,1.68 18.34,1.34 25.05,-2.01 17.22,-8.39 29.41,-26.72 30.86,-46.18 2.24,-29.85 -19.46,-58.7 -44.06,-58.7 -7.6,0 -12.75,1.68 -20.24,6.49 -11.74,7.83 -21.25,22.48 -24.04,37.12 -0.89,5.03 -1.79,6.82 -3.13,6.82 -1.57,0 -1.9,-2.35 -2.46,-16.44 -0.78,-18.67 -2.01,-26.17 -9.73,-58.48 -3.02,-12.64 -6.04,-27.17 -6.71,-32.43 -1.34,-11.74 -1.45,-37.68 0,-54.79 0.56,-7.04 1.57,-22.7 2.24,-34.66 1.34,-25.05 2.57,-34.1 6.37,-45.84 3.58,-10.96 9.73,-21.25 18.45,-30.75 8.39,-9.17 9.5,-11.29 6.26,-12.08 -3.91,-1.12 -1.01,-3.02 4.47,-3.02 4.36,0 7.16,1.12 17.11,7.04 52.55,30.97 59.71,36.34 72.57,55.01 4.58,6.6 9.84,13.08 11.74,14.2 4.14,2.57 7.16,2.35 33.77,-3.13 l 19.23,-3.91 92.58,0.45 c 102.87,0.34 96.39,-0.11 114.28,8.16 l 8.16,3.8 -0.56,9.73 c -0.56,10.62 -2.57,16.33 -18.34,51.77 -3.69,8.27 -8.61,20.35 -10.96,26.72 -6.49,17.78 -17.89,33.32 -33.1,45.51 -6.82,5.48 -7.6,6.49 -8.39,11.18 -1.34,9.17 3.02,56.91 6.93,76.48 0.89,4.58 3.58,13.98 5.81,20.69 l 4.14,12.3 0.34,105.67 c 0.22,73.8 0,107.9 -0.89,112.93 -1.57,8.83 -6.15,18.56 -12.86,27.17 -4.25,5.37 -5.59,6.37 -8.5,6.37 -2.91,0 -3.24,-0.34 -2.24,-1.57 z"
           id="path4" /></g><g
         fill="#a687bd"
         id="g7"
         style="display:inline"><path
           d="m 436.2,890.28 c -12.52,-13.42 -15.21,-17.11 -18.67,-24.26 -2.68,-5.48 -2.68,-6.04 -2.68,-41.37 0,-33.66 0.11,-36 2.24,-39.36 1.9,-3.13 2.91,-3.69 6.37,-3.69 5.81,0 17.22,6.04 24.82,12.97 l 6.26,5.81 0.67,29.41 c 0.78,31.64 0.56,30.64 6.15,44.28 5.26,12.75 5.14,15.21 -1.79,21.8 -4.47,4.25 -6.37,5.37 -9.39,5.37 -3.47,0 -4.92,-1.23 -13.98,-10.96 z"
           id="path5" /><path
           d="m 354.12,778.69 c -3.02,-3.02 2.46,-24.94 9.39,-37.57 2.57,-4.47 3.13,-4.81 7.83,-5.14 4.7,-0.34 5.7,0.22 14.54,6.82 5.26,4.03 10.96,8.95 12.75,10.96 4.81,5.7 9.73,17 9.28,21.36 l -0.34,3.69 -26.39,0.34 c -14.42,0.11 -26.61,-0.11 -27.06,-0.45 z"
           id="path6" /><path
           d="m 332.65,734.52 c -4.25,-0.56 -17.33,-2.57 -29.07,-4.47 -27.73,-4.47 -41.04,-5.14 -58.37,-2.8 -7.49,1.01 -15.65,1.79 -18.11,1.79 h -4.58 v -8.16 -8.05 l 8.83,-14.76 c 6.49,-11.07 9.95,-18.56 13.53,-29.07 6.93,-20.46 6.93,-20.46 12.75,-20.46 6.15,0 9.06,2.24 34.77,26.84 21.47,20.57 29.63,27.06 46.29,36.45 15.21,8.61 20.24,13.42 20.24,19.46 v 4.47 l -9.17,-0.11 c -5.14,-0.11 -12.75,-0.67 -17.11,-1.12 z"
           id="path7" /></g><g
         fill="#fa1c2e"
         id="g9"
         style="display:inline"><path
           d="m 882.46,881.11 c -4.36,-2.68 -6.93,-8.05 -7.04,-14.76 -0.22,-9.84 -0.56,-10.18 -11.18,-11.63 -13.53,-2.01 -35.33,-6.93 -40.81,-9.39 -8.5,-3.69 -13.31,-9.28 -20.13,-23.26 -3.47,-7.16 -6.6,-13.87 -7.16,-14.76 -0.67,-1.34 -4.81,-1.79 -23.03,-2.24 -12.75,-0.45 -23.48,-1.23 -25.27,-1.9 -7.04,-3.02 -11.07,-11.74 -8.72,-18.9 2.24,-6.82 6.26,-7.49 15.54,-2.91 6.04,2.91 7.04,3.02 29.74,3.58 15.32,0.45 24.38,1.12 25.94,2.01 1.68,0.89 3.13,3.47 4.36,7.83 3.24,11.63 4.03,14.09 6.82,19.79 4.25,8.39 7.6,11.52 14.2,12.75 3.13,0.67 11.74,2.46 19.12,4.03 7.38,1.57 17.44,3.35 22.36,3.91 14.65,1.79 17.11,5.37 17.22,25.27 0.11,9.95 -0.22,11.85 -2.8,17 -1.57,3.24 -3.47,5.81 -4.14,5.81 -0.78,0 -3.02,-1.01 -5.03,-2.24 z"
           id="path8" /><path
           d="m 339.7,530.35 c -2.46,-2.8 -5.93,-10.06 -7.72,-15.99 -1.12,-3.58 -3.13,-6.49 -7.16,-10.06 -13.42,-12.08 -19.23,-18.67 -23.37,-26.84 -6.82,-13.08 -8.05,-14.42 -17.11,-18.56 l -8.27,-3.8 -4.36,-9.5 c -2.46,-5.37 -6.49,-11.74 -9.28,-14.76 -7.83,-8.5 -9.06,-12.08 -5.81,-18.11 2.35,-4.7 7.27,-6.37 11.63,-4.14 6.37,3.35 11.07,8.5 16.44,18 4.36,7.72 6.6,10.4 12.3,14.65 9.95,7.27 14.2,12.3 20.02,23.82 5.81,11.63 9.73,16.55 18.79,23.26 15.21,11.07 16.44,12.97 16.44,24.38 0,9.28 -2.24,14.65 -7.38,17.56 -3.24,1.9 -3.58,1.9 -5.14,0.11 z"
           id="path9" /></g><g
         fill="#000001"
         id="g14"
         style="display:inline"><path
           d="m 336.79,1126.33 0.34,-18.79 4.7,-9.84 c 2.8,-5.59 5.93,-14.98 7.72,-22.36 3.02,-12.41 6.71,-23.48 10.18,-30.3 1.01,-1.9 8.16,-10.06 15.88,-18.11 9.73,-10.06 15.77,-17.33 19.46,-23.71 2.91,-5.03 6.71,-10.18 8.27,-11.41 4.25,-3.24 12.52,-5.26 26.61,-6.37 19.34,-1.34 27.4,-1.12 31.87,1.23 7.6,4.03 20.35,18.67 34.1,39.02 17.22,25.49 20.69,31.87 26.5,48.86 l 4.81,13.98 0.34,28.29 0.45,28.18 h -9.84 -9.73 l 1.01,-14.76 c 1.9,-28.85 1.45,-34.1 -4.58,-52.11 -4.58,-13.98 -6.15,-17.22 -12.41,-25.72 -3.91,-5.37 -11.74,-16.44 -17.33,-24.71 -11.52,-16.88 -17.33,-23.03 -23.26,-24.82 -2.35,-0.67 -10.06,-1.01 -18.23,-0.78 -15.88,0.34 -15.77,0.34 -23.26,10.4 -2.35,3.13 -10.85,12.52 -19.01,21.02 -17,17.78 -18.11,19.9 -24.04,42.6 -2.24,8.5 -6.49,21.69 -9.62,29.18 -3.35,8.39 -5.48,15.43 -5.48,18.23 0,2.35 -0.34,8.16 -0.67,12.86 l -0.78,8.61 h -7.16 -7.27 l 0.45,-18.67 z"
           id="path10" /><path
           d="m 708.92,1143.99 c 0,-0.56 1.01,-3.13 2.12,-5.81 1.23,-2.68 4.03,-11.18 6.26,-18.9 2.24,-7.72 6.37,-19.79 9.17,-26.84 5.59,-14.31 8.27,-23.71 12.52,-45.62 l 3.02,-14.87 20.02,-6.6 c 10.96,-3.69 25.05,-8.27 31.2,-10.18 7.6,-2.35 22.92,-9.39 47.07,-21.47 19.68,-9.84 42.71,-20.57 51.32,-23.82 16.44,-6.37 19.34,-7.94 65.75,-37.01 44.95,-28.18 60.38,-40.25 69.77,-54.23 10.62,-15.99 9.95,-6.71 9.95,-127.81 V 644.6 l -4.14,-12.3 c -2.24,-6.71 -4.92,-16.1 -5.81,-20.69 -4.03,-19.9 -8.05,-65.64 -7.16,-79.73 0.67,-7.94 0.67,-8.16 5.48,-11.96 8.95,-7.04 20.57,-19.57 26.28,-28.07 3.24,-4.92 7.49,-13.31 9.95,-20.13 2.35,-6.37 7.27,-18.45 10.96,-26.72 12.75,-28.63 17.67,-41.71 18.34,-48.42 l 0.67,-6.37 -8.27,-3.8 c -17.89,-8.27 -11.74,-7.83 -110.92,-8.16 l -89.23,-0.45 -19.23,4.03 c -24.82,5.14 -35.89,6.04 -40.48,3.02 -1.9,-1.12 -7.16,-7.6 -11.74,-14.2 -12.86,-18.67 -20.02,-24.04 -72.57,-55.01 -6.49,-3.91 -13.19,-7.04 -14.76,-7.04 -1.57,0 -4.81,-1.01 -7.27,-2.12 -2.35,-1.12 -15.43,-5.7 -28.96,-9.95 -44.5,-14.2 -55.01,-16.77 -77.15,-19.34 -6.15,-0.67 -18.45,-2.68 -27.4,-4.58 -12.86,-2.57 -21.13,-3.58 -39.92,-4.36 l -23.71,-1.12 -8.16,3.69 -8.16,3.69 h -22.36 -22.36 l -7.83,-3.69 c -7.72,-3.69 -23.15,-12.3 -39.69,-22.36 -4.58,-2.8 -10.85,-6.49 -13.98,-8.27 l -5.59,-3.13 -22.36,0.11 c -12.3,0 -24.38,0.45 -26.84,0.89 -2.46,0.56 -8.27,1.79 -12.86,2.91 -10.06,2.24 -34.66,5.03 -44.84,5.03 -9.62,0 -14.42,1.79 -26.39,9.84 -5.37,3.58 -14.54,8.95 -20.24,11.85 -16.1,8.39 -33.77,26.17 -41.04,41.6 -1.57,3.24 -3.91,10.4 -5.14,15.77 -2.35,9.39 -2.46,12.19 -2.24,62.84 0.22,38.35 0.67,55.01 1.68,59.93 1.12,5.14 1.34,15.1 0.89,37.79 -0.56,33.66 -0.22,37.35 5.59,55.57 5.14,16.33 13.31,32.54 25.27,50.21 11.63,17.33 18,23.82 33.77,35 5.48,3.91 18.56,15.77 31.31,28.29 25.49,25.27 35.45,33.77 48.64,41.37 5.37,3.13 23.15,14.42 39.58,25.27 l 29.85,19.68 7.38,9.95 c 7.72,10.4 12.3,14.76 21.58,20.02 3.13,1.79 8.27,5.26 11.63,7.6 3.35,2.46 6.26,3.91 6.71,3.35 3.58,-5.7 10.29,-13.19 13.75,-15.65 l 4.25,-2.91 24.94,0.11 c 21.58,0 25.94,0.34 33.21,2.35 4.58,1.23 15.21,3.8 23.48,5.7 13.53,3.13 17.22,4.47 36.34,13.98 11.74,5.7 29.52,13.53 39.69,17.33 19.01,7.16 46.07,20.02 58.59,27.95 9.28,5.81 15.88,13.08 17.44,19.12 3.02,11.18 -3.24,19.79 -11.29,15.43 -1.23,-0.67 -4.47,-4.58 -7.27,-8.83 -2.68,-4.25 -6.71,-9.06 -8.83,-10.85 -6.26,-5.26 -38.13,-21.02 -52.11,-25.83 -17,-5.93 -23.82,-8.72 -44.73,-18.79 -15.54,-7.49 -20.24,-9.06 -41.93,-14.65 l -24.49,-6.26 -18.11,-0.11 c -14.87,-0.11 -18.45,0.22 -19.79,1.57 -1.01,1.01 -3.58,8.72 -5.7,17.33 l -4.03,15.65 0.34,21.25 c 0.45,24.38 0.56,24.82 10.18,33.66 3.47,3.13 6.49,6.93 6.82,8.39 0.22,1.45 0.89,5.48 1.45,8.83 l 0.89,6.15 10.51,7.27 c 5.81,4.03 16.21,12.64 23.15,19.12 15.99,15.21 39.02,31.53 61.39,43.5 3.69,2.01 7.6,4.36 8.72,5.37 2.35,2.12 2.46,7.04 0.11,11.52 -1.57,3.13 -2.01,3.35 -5.81,2.68 -6.49,-1.23 -14.31,-4.81 -28.18,-13.19 -17.89,-10.73 -30.08,-19.68 -42.49,-31.31 -16.1,-15.1 -38.35,-30.97 -43.38,-30.97 -1.12,0 -3.69,1.45 -5.81,3.13 -5.81,4.81 -8.27,5.81 -14.2,5.81 -6.71,0 -10.62,-2.35 -17.78,-10.62 -3.02,-3.47 -8.72,-9.95 -12.64,-14.42 -10.4,-11.63 -16.66,-20.35 -18,-25.05 -0.67,-2.46 -1.12,-18.56 -1.12,-38.35 v -34.33 l -2.46,-0.67 c -1.45,-0.34 -13.75,-0.67 -27.4,-0.67 -13.64,0 -26.05,-0.45 -27.73,-1.12 -6.82,-2.57 -8.05,-16.33 -2.91,-32.31 3.58,-11.41 3.69,-11.29 -5.93,-11.29 -3.13,0 -16.33,-1.01 -29.18,-2.24 -17.44,-1.68 -32.2,-2.24 -57.59,-2.24 -20.24,0 -35.78,-0.45 -38.35,-1.23 -5.59,-1.45 -7.94,-5.26 -7.27,-11.41 0.56,-4.81 8.05,-21.02 22.36,-48.3 6.04,-11.41 16.55,-38.91 16.55,-43.05 0,-0.78 -4.25,-5.48 -9.5,-10.51 -5.14,-4.92 -14.42,-15.54 -20.57,-23.59 -17.11,-22.25 -27.62,-43.16 -33.66,-67.09 -2.46,-9.62 -2.46,-11.29 -1.79,-38.02 0.45,-15.43 0.45,-29.41 0.11,-31.08 -0.78,-2.8 -1.23,-3.02 -6.37,-3.02 -3.13,0 -13.98,-0.78 -24.26,-1.79 -30.3,-2.91 -52.89,-1.01 -68.66,6.04 -7.38,3.35 -20.46,14.42 -26.39,22.48 -7.27,9.95 -9.73,15.1 -12.64,26.61 -2.35,9.17 -2.57,12.41 -2.57,47.3 0,36.45 0.11,37.68 2.68,45.29 4.81,14.31 10.29,25.61 19.68,40.81 7.94,12.75 9.95,17.11 13.42,28.51 2.24,7.38 5.48,16.55 7.38,20.24 5.7,11.74 6.82,20.24 6.37,47.41 -0.34,22.48 -0.56,24.38 -2.91,28.85 -8.83,16.55 -32.54,42.83 -52.22,57.7 -5.48,4.25 -14.42,12.3 -19.79,17.89 l -9.73,10.18 v -14.54 c -0.11,-7.94 0.34,-15.1 0.78,-15.77 0.45,-0.67 5.81,-4.7 11.96,-9.06 20.8,-14.87 34.44,-28.51 46.18,-46.52 6.71,-10.29 8.05,-15.54 8.05,-32.54 0,-15.77 -1.34,-23.15 -6.37,-34.55 -2.24,-5.03 -5.81,-14.65 -8.05,-21.47 -2.91,-8.61 -7.6,-18.79 -15.43,-33.1 -12.41,-22.36 -17.56,-35.67 -19.46,-50.21 -1.9,-13.64 -0.67,-78.27 1.68,-90.35 3.47,-17.89 10.4,-29.3 28.51,-46.96 18.79,-18.34 32.65,-22.92 69.44,-23.03 11.96,-0.11 28.51,0.34 36.56,0.89 l 14.87,1.01 v -47.63 c 0,-51.21 0.89,-65.08 5.03,-80.73 3.8,-14.54 6.93,-20.91 16.55,-33.66 9.62,-12.75 18.9,-21.8 28.4,-27.84 34.77,-21.69 40.81,-25.94 43.61,-31.08 0.78,-1.34 1.45,-4.92 1.45,-8.05 0.22,-24.49 6.6,-35.67 36.23,-63.4 7.04,-6.6 17.67,-18 23.71,-25.16 13.75,-16.44 20.02,-22.7 38.69,-38.35 14.65,-12.3 33.1,-25.49 42.49,-30.41 5.7,-2.91 19.68,-3.47 24.38,-1.01 10.4,5.59 16.55,14.2 23.93,33.77 2.68,7.04 9.28,22.81 14.54,35.11 5.37,12.3 12.86,31.64 16.66,43.05 4.47,13.31 9.28,24.82 13.31,32.43 7.27,13.53 26.61,39.69 31.87,43.16 3.02,2.01 5.7,2.46 21.25,3.02 10.85,0.45 23.93,1.68 33.88,3.47 8.95,1.57 22.48,3.58 30.19,4.58 22.59,3.02 41.6,8.05 92.25,24.26 27.4,8.83 32.43,11.07 50.88,22.7 7.04,4.47 19.46,11.96 27.4,16.66 17.11,10.06 27.73,19.23 38.13,33.1 4.92,6.49 8.72,10.4 10.51,10.85 3.58,0.89 19.9,-1.12 33.54,-4.03 10.29,-2.24 13.87,-2.35 100.97,-2.35 99.96,0 96.5,-0.22 118.53,7.38 14.98,5.26 18.45,7.49 21.25,13.64 4.25,9.84 0.67,23.26 -18.11,67.54 -6.04,14.31 -12.86,30.86 -15.1,36.68 -4.36,11.63 -13.42,24.82 -27.28,40.14 -10.4,11.52 -11.18,12.86 -11.96,22.03 -1.45,14.2 3.91,48.64 11.74,76.48 1.79,6.49 3.8,15.32 4.47,19.57 0.67,4.81 1.12,48.86 1.12,113.16 0,94.15 -0.22,105.89 -1.79,110.7 -2.68,7.72 -20.35,36.79 -25.72,42.15 -6.71,6.71 -56.13,39.47 -91.58,60.72 -16.66,9.95 -26.84,14.76 -49.76,23.37 -20.69,7.72 -28.63,11.41 -54.79,25.38 -14.42,7.6 -21.58,10.4 -48.08,18.67 -8.27,2.57 -17,5.7 -19.23,6.82 -4.7,2.35 -4.47,1.79 -9.73,25.05 -1.79,8.05 -5.81,21.58 -8.83,30.19 -4.81,13.75 -7.49,22.48 -12.52,41.71 l -1.23,4.7 h -10.51 c -5.81,0 -10.62,-0.45 -10.62,-1.01 z M 458.9,889.94 l 2.8,-3.35 -2.35,-5.81 c -7.04,-17.22 -6.93,-16.1 -7.49,-47.41 l -0.67,-29.3 -4.47,-4.58 c -4.36,-4.58 -16.44,-12.41 -21.47,-13.87 -2.01,-0.67 -2.91,-0.11 -4.81,2.91 -2.12,3.47 -2.24,5.59 -2.24,36.12 0,31.87 0.11,32.54 2.68,38.02 3.47,7.16 6.15,10.85 18.67,24.26 l 10.18,10.96 3.13,-2.24 c 1.79,-1.23 4.47,-3.8 6.04,-5.7 z M 404.11,775.1 c 0.89,-1.45 -5.14,-13.64 -8.83,-18 -4.47,-5.26 -21.92,-18.11 -23.93,-17.78 -1.01,0.22 -3.13,2.91 -4.81,5.93 -4.14,7.72 -10.4,26.61 -9.5,28.85 0.67,1.68 3.13,1.9 23.59,1.9 12.64,0 23.15,-0.45 23.48,-0.89 z m -48.53,-43.83 c 0,-2.57 -9.28,-9.95 -20.24,-16.1 -16.66,-9.39 -24.82,-15.88 -46.29,-36.45 -20.46,-19.57 -28.96,-26.84 -31.42,-26.84 -2.01,0 -3.69,3.69 -9.39,20.46 -3.58,10.51 -7.04,18 -13.53,29.07 -7.27,12.19 -8.83,15.54 -8.83,19.46 0,2.68 0.56,4.81 1.23,4.81 0.67,0 7.27,-0.78 14.76,-1.79 18.34,-2.46 38.91,-1.57 65.64,2.8 33.66,5.59 48.08,6.93 48.08,4.58 z"
           id="path11" /><path
           d="m 581.67,725.58 c -10.73,-2.12 -21.69,-8.61 -34.55,-20.46 -12.64,-11.74 -12.97,-12.75 -13.53,-44.06 l -0.56,-26.17 -2.91,0.78 c -1.57,0.45 -21.69,1.12 -44.61,1.34 l -41.6,0.45 -5.93,-2.68 c -6.71,-3.13 -18.56,-12.08 -33.1,-24.94 -5.7,-5.03 -13.53,-10.96 -17.56,-13.31 l -7.27,-4.25 0.67,-5.7 c 0.45,-3.13 1.01,-6.04 1.34,-6.49 0.22,-0.56 4.36,-0.89 9.06,-0.89 10.4,0 9.95,-0.22 27.28,16.33 7.27,6.93 16.88,14.87 21.8,17.89 l 8.72,5.48 33.99,0.34 33.99,0.34 7.27,-3.69 c 3.91,-2.01 7.38,-4.25 7.72,-4.92 0.22,-0.67 -0.67,-4.92 -1.9,-9.5 -3.02,-10.29 -4.25,-34.22 -2.35,-43.72 1.57,-7.27 5.14,-11.18 12.19,-13.19 5.81,-1.57 21.02,-1.45 27.62,0.34 7.16,1.9 20.02,9.39 26.17,15.32 8.05,7.83 9.06,11.18 9.06,32.43 0,22.36 -0.56,23.59 -11.52,29.07 -6.37,3.13 -8.72,3.58 -18.9,4.03 -6.26,0.34 -13.19,0.78 -15.1,1.12 l -3.69,0.56 v 26.84 c 0,22.81 0.34,27.51 1.9,30.86 2.01,4.36 10.85,11.74 19.79,16.77 l 5.7,3.13 27.95,0.34 c 31.31,0.34 30.75,0.22 30.75,8.39 0,5.37 -4.25,10.06 -10.73,11.85 -5.03,1.45 -40.03,1.45 -47.19,0 z"
           id="path12" /><path
           d="m 741.57,653.68 c -11.29,-2.8 -22.36,-12.52 -29.97,-26.05 -12.75,-22.59 -7.72,-56.24 11.07,-74.58 8.16,-7.94 14.76,-11.52 24.38,-13.08 13.64,-2.24 25.72,1.57 36.23,11.41 8.72,8.16 15.43,20.46 17.44,31.64 1.79,10.51 0.78,28.63 -2.01,36.56 -4.81,13.31 -15.99,26.05 -28.18,31.98 -7.38,3.69 -19.34,4.58 -28.96,2.12 z"
           id="path13" /><path
           d="m 459.01,492.77 c -17.33,-5.81 -30.86,-19.9 -36.68,-38.24 -3.24,-10.4 -3.47,-29.41 -0.34,-38.58 5.37,-15.88 12.86,-26.05 24.49,-33.66 11.18,-7.27 29.52,-8.61 43.83,-3.24 5.14,2.01 8.5,4.36 14.65,10.51 11.18,11.29 15.77,22.14 16.88,39.81 1.68,27.4 -9.73,49.76 -30.64,60.05 -7.38,3.69 -9.5,4.14 -18,4.47 -5.93,0.22 -11.52,-0.22 -14.2,-1.12 z"
           id="path14" /></g></g></g></svg>
