<?xml version="1.0" encoding="UTF-8" standalone="no"?>
<svg
   version="1.0"
   width="1145px"
   height="1145px"
   viewBox="0 0 1145 1145"
   preserveAspectRatio="xMidYMid meet"
   id="svg14"
   sodipodi:docname="f0f27a55-6b6b-4dfa-975b-97ffe9209b58.svg"
   xmlns:inkscape="http://www.inkscape.org/namespaces/inkscape"
   xmlns:sodipodi="http://sodipodi.sourceforge.net/DTD/sodipodi-0.dtd"
   xmlns="http://www.w3.org/2000/svg"
   xmlns:svg="http://www.w3.org/2000/svg">
  <defs
     id="defs14" />
  <sodipodi:namedview
     id="namedview14"
     pagecolor="#ffffff"
     bordercolor="#000000"
     borderopacity="0.25"
     inkscape:showpageshadow="2"
     inkscape:pageopacity="0.0"
     inkscape:pagecheckerboard="0"
     inkscape:deskcolor="#d1d1d1" />
  <g
     fill="#fbf6e5"
     id="g2">
    <path
       d="M0 1000.65 l0 -144.35 6.37 -7.27 c3.47 -3.91 11.63 -11.29 18.11 -16.21 21.69 -16.66 45.06 -42.27 54.01 -59.26 2.35 -4.36 2.57 -6.60 2.91 -25.49 0.45 -23.48 -0.89 -32.65 -6.37 -44.06 -1.90 -3.69 -5.14 -12.86 -7.38 -20.24 -3.47 -11.41 -5.48 -15.77 -13.42 -28.51 -9.39 -15.21 -14.87 -26.50 -19.68 -40.81 -2.68 -7.72 -2.68 -8.61 -2.68 -48.64 0 -38.46 0.22 -41.37 2.46 -50.65 3.02 -11.52 5.48 -16.66 12.75 -26.61 5.93 -8.05 19.01 -19.12 26.39 -22.48 16.10 -7.16 42.27 -9.28 75.36 -6.04 10.29 1.01 21.13 1.79 24.26 1.79 5.70 0 5.70 0 6.49 4.03 0.45 2.24 0.34 16.21 -0.11 31.20 -0.78 25.83 -0.67 27.62 1.68 37.01 5.93 23.71 16.55 44.73 33.66 66.98 6.15 8.05 15.43 18.67 20.57 23.59 8.95 8.61 9.50 9.39 9.50 13.75 0 4.36 -4.58 19.90 -9.95 33.43 -1.34 3.24 -6.60 13.87 -11.85 23.48 -5.14 9.62 -11.29 21.69 -13.42 26.84 -3.80 8.72 -3.91 9.50 -2.35 11.96 2.91 4.47 8.05 5.03 44.28 5.03 25.38 0 40.14 0.56 57.59 2.24 12.86 1.23 26.05 2.24 29.18 2.24 10.85 0 11.29 1.12 6.04 17.56 -1.79 5.70 -3.35 11.96 -3.35 13.75 0 5.26 2.91 11.07 6.15 12.30 1.68 0.67 14.09 1.12 27.73 1.12 13.64 0 25.94 0.34 27.40 0.67 l2.46 0.67 0 34.33 c0 19.12 0.45 36 1.12 38.24 1.45 5.03 5.81 11.18 17.89 25.05 24.60 28.29 25.83 28.96 37.01 20.13 7.16 -5.70 12.86 -5.48 23.03 0.67 11.18 6.82 21.92 15.21 33.88 26.39 5.81 5.48 14.87 13.08 20.13 16.77 16.77 12.08 43.38 27.17 47.86 27.17 0.56 0 1.57 -1.23 2.24 -2.68 1.45 -3.24 0.34 -4.47 -9.28 -9.62 -22.36 -11.96 -45.40 -28.29 -61.39 -43.50 -6.93 -6.49 -17.33 -15.10 -23.15 -19.12 l-10.51 -7.27 -0.89 -6.15 c-0.56 -3.35 -1.23 -7.38 -1.45 -8.83 -0.34 -1.45 -3.35 -5.26 -6.82 -8.39 -9.84 -9.06 -9.73 -8.83 -10.18 -37.01 l-0.34 -24.60 4.03 -15.65 c2.12 -8.61 4.70 -16.33 5.70 -17.33 1.34 -1.34 5.37 -1.68 23.15 -1.57 l21.47 0 24.49 6.26 c21.69 5.59 26.39 7.27 41.93 14.76 20.91 10.06 27.73 12.86 44.73 18.79 13.98 4.81 45.84 20.57 52.11 25.83 2.12 1.79 6.15 6.71 8.95 10.96 5.59 8.61 7.94 10.29 10.18 7.16 5.03 -6.82 -1.45 -17.22 -16.44 -26.61 -11.74 -7.49 -39.58 -20.69 -58.03 -27.62 -10.18 -3.80 -27.95 -11.63 -39.69 -17.33 -19.12 -9.50 -22.81 -10.85 -36.34 -13.98 -8.27 -1.90 -18.90 -4.47 -23.48 -5.70 -7.04 -1.90 -11.74 -2.24 -29.97 -2.35 -21.47 0 -21.58 0 -25.83 2.91 -2.24 1.57 -6.37 5.93 -9.17 9.62 -6.26 8.39 -9.39 8.83 -18.11 2.46 -3.24 -2.35 -8.27 -5.70 -11.41 -7.49 -9.28 -5.26 -13.87 -9.62 -21.58 -20.02 l-7.38 -9.95 -29.85 -19.68 c-16.44 -10.85 -34.22 -22.14 -39.58 -25.27 -13.19 -7.60 -23.15 -16.10 -48.64 -41.37 -12.75 -12.52 -25.83 -24.38 -31.31 -28.29 -15.77 -11.18 -22.14 -17.67 -33.77 -35 -11.41 -16.88 -19.90 -33.43 -24.71 -48.53 -6.26 -18.90 -6.49 -21.92 -6.37 -58.03 0.22 -20.46 -0.22 -35.67 -0.89 -38.69 -0.78 -3.13 -1.34 -26.72 -1.45 -61.50 -0.22 -54.57 -0.22 -56.80 2.12 -66.31 1.34 -5.37 3.69 -12.52 5.26 -15.77 7.27 -15.43 24.94 -33.21 41.04 -41.60 5.70 -2.91 14.87 -8.27 20.24 -11.85 11.96 -8.05 16.77 -9.84 26.39 -9.84 10.18 0 34.77 -2.80 44.84 -5.03 4.58 -1.12 10.40 -2.35 12.86 -2.91 2.46 -0.45 16.10 -0.89 30.19 -0.89 l25.72 -0.11 5.59 3.13 c3.13 1.79 9.39 5.48 13.98 8.27 16.55 10.06 31.98 18.79 39.69 22.36 l7.83 3.69 19.01 0 19.01 0 8.39 -3.80 8.27 -3.80 26.95 1.23 c22.48 1.01 29.52 1.68 43.05 4.47 8.95 1.90 21.25 3.91 27.40 4.58 22.03 2.46 32.76 5.14 76.82 19.23 13.31 4.25 26.84 8.83 29.97 10.18 l5.81 2.57 -0.56 4.70 c-0.45 3.91 -1.68 6.04 -8.05 12.86 -9.06 9.84 -15.21 19.90 -18.79 31.08 -3.80 11.74 -5.03 20.80 -6.37 45.84 -0.67 11.96 -1.68 27.62 -2.24 34.66 -1.45 17 -1.34 36.45 0 48.08 0.67 5.26 3.69 19.79 6.71 32.43 8.27 34.66 8.95 39.58 10.06 67.65 0.45 14.20 1.57 27.73 2.24 30.19 1.79 6.15 7.94 16.88 12.86 22.59 2.24 2.68 7.27 6.93 11.29 9.50 6.49 4.36 7.16 5.03 7.16 8.61 0 4.92 8.61 20.80 18.45 33.88 4.14 5.37 13.08 14.87 21.13 22.14 14.98 13.64 18.67 17.89 27.51 32.43 3.24 5.26 7.60 12.08 9.95 15.21 4.92 7.16 29.30 33.10 52.89 56.58 15.10 15.10 17.67 18.11 17.67 21.02 0 2.01 -0.67 3.69 -1.68 4.03 -2.46 1.01 -20.13 -1.34 -35.67 -4.58 -7.49 -1.57 -16.10 -3.35 -19.23 -4.03 -9.17 -1.79 -14.54 -9.39 -19.79 -28.40 -1.57 -5.37 -3.35 -10.29 -3.91 -10.85 -2.12 -2.12 -10.85 -3.02 -29.63 -3.13 -17.67 0 -19.34 -0.22 -26.17 -2.91 -7.16 -2.91 -7.49 -2.91 -8.95 -0.89 -2.01 2.68 -1.79 5.59 0.45 9.50 3.69 6.15 7.49 7.04 32.09 7.72 18.23 0.45 22.36 0.89 23.03 2.24 0.56 0.89 3.69 7.60 7.16 14.76 6.82 13.98 11.63 19.57 20.13 23.26 5.48 2.46 27.51 7.49 40.25 9.17 4.92 0.67 9.50 1.57 9.95 2.01 0.45 0.45 1.34 4.70 1.79 9.50 1.01 8.39 3.35 13.75 6.60 14.87 0.78 0.22 2.46 -1.90 3.69 -4.92 2.24 -4.81 2.35 -6.49 1.57 -19.12 l-0.78 -13.75 5.81 0 c7.04 0 12.52 2.24 47.52 19.68 26.72 13.31 25.16 12.75 58.03 20.46 5.37 1.23 12.08 3.35 14.76 4.70 4.36 2.01 4.92 2.80 4.92 5.93 0 3.24 -1.12 4.47 -9.73 11.41 -5.48 4.25 -13.08 10.18 -17.11 12.97 -6.04 4.25 -51.66 32.99 -76.59 48.19 -3.69 2.24 -13.75 6.82 -22.36 10.18 -8.61 3.24 -31.76 13.98 -51.44 23.82 -24.15 12.08 -39.47 19.12 -47.07 21.47 -6.15 1.90 -20.24 6.49 -31.20 10.18 l-20.02 6.60 -3.02 14.87 c-4.36 21.92 -6.93 31.31 -12.52 45.62 -2.80 7.04 -6.71 18.45 -8.61 25.16 -2.01 6.82 -4.58 14.98 -5.81 18.23 l-2.12 5.81 -94.37 0 -94.26 0 -0.45 -26.50 -0.34 -26.61 -4.81 -13.98 c-5.81 -17 -9.28 -23.37 -26.50 -48.86 -13.75 -20.46 -26.50 -35 -34.10 -38.91 -4.36 -2.24 -8.05 -2.46 -25.16 -1.23 -13.98 1.01 -22.36 3.02 -26.61 6.26 -1.57 1.23 -5.37 6.37 -8.27 11.41 -3.69 6.37 -9.73 13.64 -19.46 23.71 -7.72 8.05 -14.87 16.21 -15.88 18.11 -3.47 6.82 -7.16 17.89 -10.18 30.30 -1.79 7.38 -4.92 16.77 -7.72 22.36 l-4.70 9.84 -0.34 17.11 -0.45 17 -169.85 0 -169.85 0 0 -144.35z m629.19 -279.76 c5.14 -2.68 7.60 -6.71 6.04 -9.62 -1.23 -2.12 -2.57 -2.24 -29.52 -2.57 l-28.18 -0.34 -5.70 -3.13 c-8.95 -5.03 -17.78 -12.41 -19.79 -16.77 -1.68 -3.35 -1.90 -8.27 -1.90 -34.22 l0 -30.19 3.69 -0.56 c1.90 -0.34 8.83 -0.78 15.10 -1.12 10.18 -0.45 12.52 -0.89 18.90 -4.03 10.62 -5.26 11.52 -7.16 11.52 -25.72 0 -17.56 -1.34 -21.47 -9.06 -29.07 -6.15 -5.93 -19.01 -13.42 -26.17 -15.32 -10.96 -2.91 -22.36 -1.45 -28.40 3.69 -2.46 2.01 -3.69 4.36 -4.70 9.17 -1.79 8.61 -0.67 26.61 2.35 37.01 1.23 4.58 2.24 10.29 2.01 12.75 -0.34 4.14 -0.67 4.58 -7.60 8.16 l-7.16 3.91 -37.57 -0.34 -37.46 -0.34 -8.61 -5.37 c-4.92 -3.02 -14.87 -11.29 -23.15 -19.23 -8.05 -7.72 -15.77 -14.20 -17.22 -14.54 -1.45 -0.45 -4.58 -0.56 -7.04 -0.34 -3.91 0.34 -4.36 0.67 -4.70 3.69 -0.22 3.02 0.45 3.69 6.37 7.16 3.69 2.12 11.29 7.83 17 12.86 14.54 12.86 26.39 21.80 33.10 24.94 l5.93 2.68 38.24 -0.56 c21.13 -0.34 41.15 -0.89 44.61 -1.23 l6.26 -0.78 0.56 26.17 c0.56 31.31 0.89 32.31 13.53 44.06 9.62 8.83 15.54 13.08 23.71 16.77 8.95 4.14 13.87 4.81 33.54 4.58 14.65 -0.22 18.56 -0.56 21.47 -2.24z m-281.78 -200.60 c1.90 -4.70 1.90 -11.29 -0.22 -15.21 -1.68 -3.35 -4.70 -6.04 -14.76 -13.42 -9.06 -6.71 -12.97 -11.63 -18.79 -23.26 -5.81 -11.52 -10.06 -16.55 -20.02 -23.82 -5.70 -4.25 -7.94 -6.93 -12.19 -14.42 -5.14 -9.17 -8.61 -13.31 -14.42 -16.88 -2.80 -1.90 -3.13 -1.79 -5.26 0.34 -3.58 3.58 -2.91 6.26 3.35 13.08 3.47 3.80 7.38 10.06 10.06 15.65 l4.25 9.39 8.27 3.80 c9.06 4.14 10.29 5.48 17.11 18.56 4.14 8.16 9.95 14.76 23.37 26.84 4.03 3.58 6.04 6.49 7.16 10.06 0.78 2.80 2.68 7.49 4.25 10.40 2.35 4.70 2.91 5.26 4.47 3.91 1.01 -0.78 2.46 -3.02 3.35 -5.03z m140.67 -34.33 c33.21 -16.44 40.81 -64.07 14.76 -91.91 -18.67 -20.02 -45.40 -19.57 -64.18 1.01 -9.17 9.95 -15.32 25.72 -15.32 39.36 -0.22 21.25 12.08 41.82 30.64 51.44 11.96 6.26 21.69 6.26 34.10 0.11z"
       id="path1" />
    <path
       d="M348.31 1130.24 c0.78 -14.31 1.01 -15.32 6.15 -28.40 3.02 -7.49 7.27 -20.57 9.50 -29.07 5.93 -22.70 7.04 -24.82 24.04 -42.60 8.16 -8.50 16.66 -17.89 19.01 -21.02 7.72 -10.29 6.93 -10.06 26.72 -10.40 10.40 -0.22 19.12 0.11 21.47 0.78 5.93 1.79 11.74 7.94 23.26 24.82 5.59 8.27 13.42 19.34 17.33 24.71 6.15 8.39 7.83 11.74 12.52 25.72 5.14 15.54 5.37 16.33 5.37 29.97 0.11 7.72 -0.34 19.90 -0.89 27.17 l-1.01 13.08 -82.19 0 -82.07 0 0.78 -14.76z"
       id="path2" />
  </g>
  <g
     fill="#ebcd89"
     id="g3">
    <path
       d="M726.81 1142.99 c0 -3.69 8.72 -34.22 13.98 -48.86 2.91 -7.94 6.71 -21.02 8.50 -29.07 5.26 -23.26 5.03 -22.70 9.73 -25.05 2.24 -1.12 10.96 -4.25 19.23 -6.82 26.50 -8.27 33.66 -11.07 48.08 -18.67 26.17 -13.98 34.10 -17.67 54.79 -25.38 22.92 -8.61 33.10 -13.42 49.76 -23.37 35.45 -21.25 84.87 -54.01 91.58 -60.72 5.37 -5.37 23.03 -34.44 25.72 -42.15 1.57 -4.81 1.79 -16.33 1.79 -107.34 0 -62.06 -0.45 -105 -1.12 -109.80 -0.67 -4.25 -2.68 -13.08 -4.47 -19.57 -8.16 -29.07 -12.97 -61.39 -11.96 -79.84 0.78 -12.64 1.01 -12.97 12.19 -25.38 13.87 -15.32 22.92 -28.51 27.28 -40.14 2.24 -5.81 8.72 -21.69 14.54 -35.22 12.08 -28.63 16.21 -39.58 18.79 -50.09 1.79 -7.16 1.79 -7.72 -0.22 -12.30 -2.68 -6.04 -6.26 -8.39 -21.25 -13.53 -22.25 -7.72 -18.79 -7.49 -118.75 -7.16 -89.45 0.45 -90.01 0.45 -99.52 2.91 -9.62 2.57 -29.85 4.47 -34.77 3.24 -1.68 -0.45 -5.59 -4.58 -10.40 -10.85 -10.40 -13.87 -21.02 -23.03 -38.13 -33.10 -7.94 -4.70 -20.35 -12.19 -27.40 -16.66 -18.45 -11.63 -23.48 -13.87 -50.88 -22.70 -50.65 -16.21 -69.66 -21.25 -92.25 -24.26 -7.72 -1.01 -21.25 -3.02 -30.19 -4.58 -9.95 -1.79 -23.03 -3.02 -33.88 -3.47 -15.54 -0.56 -18.23 -1.01 -21.25 -3.02 -5.26 -3.47 -24.60 -29.63 -31.87 -43.16 -4.03 -7.60 -8.83 -19.12 -13.31 -32.43 -3.80 -11.41 -11.29 -30.75 -16.66 -43.05 -5.26 -12.30 -11.85 -28.07 -14.54 -35.11 -7.38 -19.46 -13.64 -28.40 -23.82 -33.66 -4.14 -2.12 -12.52 -1.68 -17.78 1.01 -13.87 7.04 -47.30 32.87 -63.74 49.09 -3.58 3.47 -11.41 12.30 -17.44 19.57 -6.04 7.16 -16.66 18.56 -23.71 25.16 -29.63 27.73 -36 38.91 -36.23 63.40 -0.11 10.73 -1.34 11.85 -45.06 39.14 -9.50 6.04 -18.79 15.10 -28.40 27.84 -9.62 12.75 -12.75 19.12 -16.55 33.66 -4.14 15.65 -5.03 29.52 -5.03 80.84 l0 47.52 -18.11 -1.01 c-61.72 -3.47 -80.62 0.67 -102.76 22.14 -18.11 17.67 -25.05 29.07 -28.51 46.96 -2.24 12.08 -3.47 70.22 -1.68 83.53 1.90 14.65 7.04 27.84 19.46 50.32 7.83 14.31 12.52 24.49 15.43 33.10 2.24 6.82 5.81 16.44 8.05 21.47 5.26 11.85 6.37 18.67 6.37 37.91 0 20.46 -1.12 25.16 -8.05 35.89 -11.74 18 -25.27 31.64 -46.18 46.52 -6.15 4.36 -11.29 8.27 -11.52 8.83 -0.22 0.45 -1.34 0.89 -2.57 0.89 -2.12 0 -2.12 -6.82 -2.12 -418.19 l0 -418.19 572.50 0 572.50 0 0 572.50 0 572.50 -209.10 0 c-199.93 0 -209.10 -0.11 -209.10 -2.01z"
       id="path3" />
  </g>
  <g
     fill="#dcb46f"
     id="g4">
    <path
       d="M1016.30 891.85 c1.79 -2.12 -5.70 -5.70 -18.45 -8.61 -32.87 -7.72 -31.31 -7.16 -58.03 -20.46 -40.14 -19.90 -46.40 -22.25 -46.40 -17.44 0 3.02 -4.03 3.02 -4.81 0 -0.34 -1.23 -2.12 -3.13 -3.91 -4.14 -3.69 -2.12 -6.04 -6.71 -2.80 -5.48 5.26 2.01 1.79 -2.35 -13.98 -18.11 -40.92 -40.70 -50.76 -52.33 -67.87 -79.73 -2.57 -4.14 -9.17 -11.63 -15.65 -17.78 -20.13 -19.12 -25.94 -25.38 -32.87 -35.78 -9.39 -14.09 -16.55 -28.96 -14.54 -30.30 1.23 -0.67 1.12 -1.01 -0.45 -1.68 -1.01 -0.34 -1.90 -1.23 -1.90 -1.90 0 -0.67 2.46 -0.78 7.49 -0.22 13.75 1.68 18.34 1.34 25.05 -2.01 17.22 -8.39 29.41 -26.72 30.86 -46.18 2.24 -29.85 -19.46 -58.70 -44.06 -58.70 -7.60 0 -12.75 1.68 -20.24 6.49 -11.74 7.83 -21.25 22.48 -24.04 37.12 -0.89 5.03 -1.79 6.82 -3.13 6.82 -1.57 0 -1.90 -2.35 -2.46 -16.44 -0.78 -18.67 -2.01 -26.17 -9.73 -58.48 -3.02 -12.64 -6.04 -27.17 -6.71 -32.43 -1.34 -11.74 -1.45 -37.68 0 -54.79 0.56 -7.04 1.57 -22.70 2.24 -34.66 1.34 -25.05 2.57 -34.10 6.37 -45.84 3.58 -10.96 9.73 -21.25 18.45 -30.75 8.39 -9.17 9.50 -11.29 6.26 -12.08 -3.91 -1.12 -1.01 -3.02 4.47 -3.02 4.36 0 7.16 1.12 17.11 7.04 52.55 30.97 59.71 36.34 72.57 55.01 4.58 6.60 9.84 13.08 11.74 14.20 4.14 2.57 7.16 2.35 33.77 -3.13 l19.23 -3.91 92.58 0.45 c102.87 0.34 96.39 -0.11 114.28 8.16 l8.16 3.80 -0.56 9.73 c-0.56 10.62 -2.57 16.33 -18.34 51.77 -3.69 8.27 -8.61 20.35 -10.96 26.72 -6.49 17.78 -17.89 33.32 -33.10 45.51 -6.82 5.48 -7.60 6.49 -8.39 11.18 -1.34 9.17 3.02 56.91 6.93 76.48 0.89 4.58 3.58 13.98 5.81 20.69 l4.14 12.30 0.34 105.67 c0.22 73.80 0 107.90 -0.89 112.93 -1.57 8.83 -6.15 18.56 -12.86 27.17 -4.25 5.37 -5.59 6.37 -8.50 6.37 -2.91 0 -3.24 -0.34 -2.24 -1.57z"
       id="path4" />
  </g>
  <g
     fill="#a687bd"
     id="g7">
    <path
       d="M436.20 890.28 c-12.52 -13.42 -15.21 -17.11 -18.67 -24.26 -2.68 -5.48 -2.68 -6.04 -2.68 -41.37 0 -33.66 0.11 -36 2.24 -39.36 1.90 -3.13 2.91 -3.69 6.37 -3.69 5.81 0 17.22 6.04 24.82 12.97 l6.26 5.81 0.67 29.41 c0.78 31.64 0.56 30.64 6.15 44.28 5.26 12.75 5.14 15.21 -1.79 21.80 -4.47 4.25 -6.37 5.37 -9.39 5.37 -3.47 0 -4.92 -1.23 -13.98 -10.96z"
       id="path5" />
    <path
       d="M354.12 778.69 c-3.02 -3.02 2.46 -24.94 9.39 -37.57 2.57 -4.47 3.13 -4.81 7.83 -5.14 4.70 -0.34 5.70 0.22 14.54 6.82 5.26 4.03 10.96 8.95 12.75 10.96 4.81 5.70 9.73 17 9.28 21.36 l-0.34 3.69 -26.39 0.34 c-14.42 0.11 -26.61 -0.11 -27.06 -0.45z"
       id="path6" />
    <path
       d="M332.65 734.52 c-4.25 -0.56 -17.33 -2.57 -29.07 -4.47 -27.73 -4.47 -41.04 -5.14 -58.37 -2.80 -7.49 1.01 -15.65 1.79 -18.11 1.79 l-4.58 0 0 -8.16 0 -8.05 8.83 -14.76 c6.49 -11.07 9.95 -18.56 13.53 -29.07 6.93 -20.46 6.93 -20.46 12.75 -20.46 6.15 0 9.06 2.24 34.77 26.84 21.47 20.57 29.63 27.06 46.29 36.45 15.21 8.61 20.24 13.42 20.24 19.46 l0 4.47 -9.17 -0.11 c-5.14 -0.11 -12.75 -0.67 -17.11 -1.12z"
       id="path7" />
  </g>
  <g
     fill="#fa1c2e"
     id="g9">
    <path
       d="M882.46 881.11 c-4.36 -2.68 -6.93 -8.05 -7.04 -14.76 -0.22 -9.84 -0.56 -10.18 -11.18 -11.63 -13.53 -2.01 -35.33 -6.93 -40.81 -9.39 -8.50 -3.69 -13.31 -9.28 -20.13 -23.26 -3.47 -7.16 -6.60 -13.87 -7.16 -14.76 -0.67 -1.34 -4.81 -1.79 -23.03 -2.24 -12.75 -0.45 -23.48 -1.23 -25.27 -1.90 -7.04 -3.02 -11.07 -11.74 -8.72 -18.90 2.24 -6.82 6.26 -7.49 15.54 -2.91 6.04 2.91 7.04 3.02 29.74 3.58 15.32 0.45 24.38 1.12 25.94 2.01 1.68 0.89 3.13 3.47 4.36 7.83 3.24 11.63 4.03 14.09 6.82 19.79 4.25 8.39 7.60 11.52 14.20 12.75 3.13 0.67 11.74 2.46 19.12 4.03 7.38 1.57 17.44 3.35 22.36 3.91 14.65 1.79 17.11 5.37 17.22 25.27 0.11 9.95 -0.22 11.85 -2.80 17 -1.57 3.24 -3.47 5.81 -4.14 5.81 -0.78 0 -3.02 -1.01 -5.03 -2.24z"
       id="path8" />
    <path
       d="M339.70 530.35 c-2.46 -2.80 -5.93 -10.06 -7.72 -15.99 -1.12 -3.58 -3.13 -6.49 -7.16 -10.06 -13.42 -12.08 -19.23 -18.67 -23.37 -26.84 -6.82 -13.08 -8.05 -14.42 -17.11 -18.56 l-8.27 -3.80 -4.36 -9.50 c-2.46 -5.37 -6.49 -11.74 -9.28 -14.76 -7.83 -8.50 -9.06 -12.08 -5.81 -18.11 2.35 -4.70 7.27 -6.37 11.63 -4.14 6.37 3.35 11.07 8.50 16.44 18 4.36 7.72 6.60 10.40 12.30 14.65 9.95 7.27 14.20 12.30 20.02 23.82 5.81 11.63 9.73 16.55 18.79 23.26 15.21 11.07 16.44 12.97 16.44 24.38 0 9.28 -2.24 14.65 -7.38 17.56 -3.24 1.90 -3.58 1.90 -5.14 0.11z"
       id="path9" />
  </g>
  <g
     fill="#000001"
     id="g14">
    <path
       d="M336.79 1126.33 l0.34 -18.79 4.70 -9.84 c2.80 -5.59 5.93 -14.98 7.72 -22.36 3.02 -12.41 6.71 -23.48 10.18 -30.30 1.01 -1.90 8.16 -10.06 15.88 -18.11 9.73 -10.06 15.77 -17.33 19.46 -23.71 2.91 -5.03 6.71 -10.18 8.27 -11.41 4.25 -3.24 12.52 -5.26 26.61 -6.37 19.34 -1.34 27.40 -1.12 31.87 1.23 7.60 4.03 20.35 18.67 34.10 39.02 17.22 25.49 20.69 31.87 26.50 48.86 l4.81 13.98 0.34 28.29 0.45 28.18 -9.84 0 -9.73 0 1.01 -14.76 c1.90 -28.85 1.45 -34.10 -4.58 -52.11 -4.58 -13.98 -6.15 -17.22 -12.41 -25.72 -3.91 -5.37 -11.74 -16.44 -17.33 -24.71 -11.52 -16.88 -17.33 -23.03 -23.26 -24.82 -2.35 -0.67 -10.06 -1.01 -18.23 -0.78 -15.88 0.34 -15.77 0.34 -23.26 10.40 -2.35 3.13 -10.85 12.52 -19.01 21.02 -17 17.78 -18.11 19.90 -24.04 42.60 -2.24 8.50 -6.49 21.69 -9.62 29.18 -3.35 8.39 -5.48 15.43 -5.48 18.23 0 2.35 -0.34 8.16 -0.67 12.86 l-0.78 8.61 -7.16 0 -7.27 0 0.45 -18.67z"
       id="path10" />
    <path
       d="M708.92 1143.99 c0 -0.56 1.01 -3.13 2.12 -5.81 1.23 -2.68 4.03 -11.18 6.26 -18.90 2.24 -7.72 6.37 -19.79 9.17 -26.84 5.59 -14.31 8.27 -23.71 12.52 -45.62 l3.02 -14.87 20.02 -6.60 c10.96 -3.69 25.05 -8.27 31.20 -10.18 7.60 -2.35 22.92 -9.39 47.07 -21.47 19.68 -9.84 42.71 -20.57 51.32 -23.82 16.44 -6.37 19.34 -7.94 65.75 -37.01 44.95 -28.18 60.38 -40.25 69.77 -54.23 10.62 -15.99 9.95 -6.71 9.95 -127.81 l0 -106.23 -4.14 -12.30 c-2.24 -6.71 -4.92 -16.10 -5.81 -20.69 -4.03 -19.90 -8.05 -65.64 -7.16 -79.73 0.67 -7.94 0.67 -8.16 5.48 -11.96 8.95 -7.04 20.57 -19.57 26.28 -28.07 3.24 -4.92 7.49 -13.31 9.95 -20.13 2.35 -6.37 7.27 -18.45 10.96 -26.72 12.75 -28.63 17.67 -41.71 18.34 -48.42 l0.67 -6.37 -8.27 -3.80 c-17.89 -8.27 -11.74 -7.83 -110.92 -8.16 l-89.23 -0.45 -19.23 4.03 c-24.82 5.14 -35.89 6.04 -40.48 3.02 -1.90 -1.12 -7.16 -7.60 -11.74 -14.20 -12.86 -18.67 -20.02 -24.04 -72.57 -55.01 -6.49 -3.91 -13.19 -7.04 -14.76 -7.04 -1.57 0 -4.81 -1.01 -7.27 -2.12 -2.35 -1.12 -15.43 -5.70 -28.96 -9.95 -44.50 -14.20 -55.01 -16.77 -77.15 -19.34 -6.15 -0.67 -18.45 -2.68 -27.40 -4.58 -12.86 -2.57 -21.13 -3.58 -39.92 -4.36 l-23.71 -1.12 -8.16 3.69 -8.16 3.69 -22.36 0 -22.36 0 -7.83 -3.69 c-7.72 -3.69 -23.15 -12.30 -39.69 -22.36 -4.58 -2.80 -10.85 -6.49 -13.98 -8.27 l-5.59 -3.13 -22.36 0.11 c-12.30 0 -24.38 0.45 -26.84 0.89 -2.46 0.56 -8.27 1.79 -12.86 2.91 -10.06 2.24 -34.66 5.03 -44.84 5.03 -9.62 0 -14.42 1.79 -26.39 9.84 -5.37 3.58 -14.54 8.95 -20.24 11.85 -16.10 8.39 -33.77 26.17 -41.04 41.60 -1.57 3.24 -3.91 10.40 -5.14 15.77 -2.35 9.39 -2.46 12.19 -2.24 62.84 0.22 38.35 0.67 55.01 1.68 59.93 1.12 5.14 1.34 15.10 0.89 37.79 -0.56 33.66 -0.22 37.35 5.59 55.57 5.14 16.33 13.31 32.54 25.27 50.21 11.63 17.33 18 23.82 33.77 35 5.48 3.91 18.56 15.77 31.31 28.29 25.49 25.27 35.45 33.77 48.64 41.37 5.37 3.13 23.15 14.42 39.58 25.27 l29.85 19.68 7.38 9.95 c7.72 10.40 12.30 14.76 21.58 20.02 3.13 1.79 8.27 5.26 11.63 7.60 3.35 2.46 6.26 3.91 6.71 3.35 3.58 -5.70 10.29 -13.19 13.75 -15.65 l4.25 -2.91 24.94 0.11 c21.58 0 25.94 0.34 33.21 2.35 4.58 1.23 15.21 3.80 23.48 5.70 13.53 3.13 17.22 4.47 36.34 13.98 11.74 5.70 29.52 13.53 39.69 17.33 19.01 7.16 46.07 20.02 58.59 27.95 9.28 5.81 15.88 13.08 17.44 19.12 3.02 11.18 -3.24 19.79 -11.29 15.43 -1.23 -0.67 -4.47 -4.58 -7.27 -8.83 -2.68 -4.25 -6.71 -9.06 -8.83 -10.85 -6.26 -5.26 -38.13 -21.02 -52.11 -25.83 -17 -5.93 -23.82 -8.72 -44.73 -18.79 -15.54 -7.49 -20.24 -9.06 -41.93 -14.65 l-24.49 -6.26 -18.11 -0.11 c-14.87 -0.11 -18.45 0.22 -19.79 1.57 -1.01 1.01 -3.58 8.72 -5.70 17.33 l-4.03 15.65 0.34 21.25 c0.45 24.38 0.56 24.82 10.18 33.66 3.47 3.13 6.49 6.93 6.82 8.39 0.22 1.45 0.89 5.48 1.45 8.83 l0.89 6.15 10.51 7.27 c5.81 4.03 16.21 12.64 23.15 19.12 15.99 15.21 39.02 31.53 61.39 43.50 3.69 2.01 7.60 4.36 8.72 5.37 2.35 2.12 2.46 7.04 0.11 11.52 -1.57 3.13 -2.01 3.35 -5.81 2.68 -6.49 -1.23 -14.31 -4.81 -28.18 -13.19 -17.89 -10.73 -30.08 -19.68 -42.49 -31.31 -16.10 -15.10 -38.35 -30.97 -43.38 -30.97 -1.12 0 -3.69 1.45 -5.81 3.13 -5.81 4.81 -8.27 5.81 -14.20 5.81 -6.71 0 -10.62 -2.35 -17.78 -10.62 -3.02 -3.47 -8.72 -9.95 -12.64 -14.42 -10.40 -11.63 -16.66 -20.35 -18 -25.05 -0.67 -2.46 -1.12 -18.56 -1.12 -38.35 l0 -34.33 -2.46 -0.67 c-1.45 -0.34 -13.75 -0.67 -27.40 -0.67 -13.64 0 -26.05 -0.45 -27.73 -1.12 -6.82 -2.57 -8.05 -16.33 -2.91 -32.31 3.58 -11.41 3.69 -11.29 -5.93 -11.29 -3.13 0 -16.33 -1.01 -29.18 -2.24 -17.44 -1.68 -32.20 -2.24 -57.59 -2.24 -20.24 0 -35.78 -0.45 -38.35 -1.23 -5.59 -1.45 -7.94 -5.26 -7.27 -11.41 0.56 -4.81 8.05 -21.02 22.36 -48.30 6.04 -11.41 16.55 -38.91 16.55 -43.05 0 -0.78 -4.25 -5.48 -9.50 -10.51 -5.14 -4.92 -14.42 -15.54 -20.57 -23.59 -17.11 -22.25 -27.62 -43.16 -33.66 -67.09 -2.46 -9.62 -2.46 -11.29 -1.79 -38.02 0.45 -15.43 0.45 -29.41 0.11 -31.08 -0.78 -2.80 -1.23 -3.02 -6.37 -3.02 -3.13 0 -13.98 -0.78 -24.26 -1.79 -30.30 -2.91 -52.89 -1.01 -68.66 6.04 -7.38 3.35 -20.46 14.42 -26.39 22.48 -7.27 9.95 -9.73 15.10 -12.64 26.61 -2.35 9.17 -2.57 12.41 -2.57 47.30 0 36.45 0.11 37.68 2.68 45.29 4.81 14.31 10.29 25.61 19.68 40.81 7.94 12.75 9.95 17.11 13.42 28.51 2.24 7.38 5.48 16.55 7.38 20.24 5.70 11.74 6.82 20.24 6.37 47.41 -0.34 22.48 -0.56 24.38 -2.91 28.85 -8.83 16.55 -32.54 42.83 -52.22 57.70 -5.48 4.25 -14.42 12.30 -19.79 17.89 l-9.73 10.18 0 -14.54 c-0.11 -7.94 0.34 -15.10 0.78 -15.77 0.45 -0.67 5.81 -4.70 11.96 -9.06 20.80 -14.87 34.44 -28.51 46.18 -46.52 6.71 -10.29 8.05 -15.54 8.05 -32.54 0 -15.77 -1.34 -23.15 -6.37 -34.55 -2.24 -5.03 -5.81 -14.65 -8.05 -21.47 -2.91 -8.61 -7.60 -18.79 -15.43 -33.10 -12.41 -22.36 -17.56 -35.67 -19.46 -50.21 -1.90 -13.64 -0.67 -78.27 1.68 -90.35 3.47 -17.89 10.40 -29.30 28.51 -46.96 18.79 -18.34 32.65 -22.92 69.44 -23.03 11.96 -0.11 28.51 0.34 36.56 0.89 l14.87 1.01 0 -47.63 c0 -51.21 0.89 -65.08 5.03 -80.73 3.80 -14.54 6.93 -20.91 16.55 -33.66 9.62 -12.75 18.90 -21.80 28.40 -27.84 34.77 -21.69 40.81 -25.94 43.61 -31.08 0.78 -1.34 1.45 -4.92 1.45 -8.05 0.22 -24.49 6.60 -35.67 36.23 -63.40 7.04 -6.60 17.67 -18 23.71 -25.16 13.75 -16.44 20.02 -22.70 38.69 -38.35 14.65 -12.30 33.10 -25.49 42.49 -30.41 5.70 -2.91 19.68 -3.47 24.38 -1.01 10.40 5.59 16.55 14.20 23.93 33.77 2.68 7.04 9.28 22.81 14.54 35.11 5.37 12.30 12.86 31.64 16.66 43.05 4.47 13.31 9.28 24.82 13.31 32.43 7.27 13.53 26.61 39.69 31.87 43.16 3.02 2.01 5.70 2.46 21.25 3.02 10.85 0.45 23.93 1.68 33.88 3.47 8.95 1.57 22.48 3.58 30.19 4.58 22.59 3.02 41.60 8.05 92.25 24.26 27.40 8.83 32.43 11.07 50.88 22.70 7.04 4.47 19.46 11.96 27.40 16.66 17.11 10.06 27.73 19.23 38.13 33.10 4.92 6.49 8.72 10.40 10.51 10.85 3.58 0.89 19.90 -1.12 33.54 -4.03 10.29 -2.24 13.87 -2.35 100.97 -2.35 99.96 0 96.50 -0.22 118.53 7.38 14.98 5.26 18.45 7.49 21.25 13.64 4.25 9.84 0.67 23.26 -18.11 67.54 -6.04 14.31 -12.86 30.86 -15.10 36.68 -4.36 11.63 -13.42 24.82 -27.28 40.14 -10.40 11.52 -11.18 12.86 -11.96 22.03 -1.45 14.20 3.91 48.64 11.74 76.48 1.79 6.49 3.80 15.32 4.47 19.57 0.67 4.81 1.12 48.86 1.12 113.16 0 94.15 -0.22 105.89 -1.79 110.70 -2.68 7.72 -20.35 36.79 -25.72 42.15 -6.71 6.71 -56.13 39.47 -91.58 60.72 -16.66 9.95 -26.84 14.76 -49.76 23.37 -20.69 7.72 -28.63 11.41 -54.79 25.38 -14.42 7.60 -21.58 10.40 -48.08 18.67 -8.27 2.57 -17 5.70 -19.23 6.82 -4.70 2.35 -4.47 1.79 -9.73 25.05 -1.79 8.05 -5.81 21.58 -8.83 30.19 -4.81 13.75 -7.49 22.48 -12.52 41.71 l-1.23 4.70 -10.51 0 c-5.81 0 -10.62 -0.45 -10.62 -1.01z m-250.02 -254.05 l2.80 -3.35 -2.35 -5.81 c-7.04 -17.22 -6.93 -16.10 -7.49 -47.41 l-0.67 -29.30 -4.47 -4.58 c-4.36 -4.58 -16.44 -12.41 -21.47 -13.87 -2.01 -0.67 -2.91 -0.11 -4.81 2.91 -2.12 3.47 -2.24 5.59 -2.24 36.12 0 31.87 0.11 32.54 2.68 38.02 3.47 7.16 6.15 10.85 18.67 24.26 l10.18 10.96 3.13 -2.24 c1.79 -1.23 4.47 -3.80 6.04 -5.70z m-54.79 -114.84 c0.89 -1.45 -5.14 -13.64 -8.83 -18 -4.47 -5.26 -21.92 -18.11 -23.93 -17.78 -1.01 0.22 -3.13 2.91 -4.81 5.93 -4.14 7.72 -10.40 26.61 -9.50 28.85 0.67 1.68 3.13 1.90 23.59 1.90 12.64 0 23.15 -0.45 23.48 -0.89z m-48.53 -43.83 c0 -2.57 -9.28 -9.95 -20.24 -16.10 -16.66 -9.39 -24.82 -15.88 -46.29 -36.45 -20.46 -19.57 -28.96 -26.84 -31.42 -26.84 -2.01 0 -3.69 3.69 -9.39 20.46 -3.58 10.51 -7.04 18 -13.53 29.07 -7.27 12.19 -8.83 15.54 -8.83 19.46 0 2.68 0.56 4.81 1.23 4.81 0.67 0 7.27 -0.78 14.76 -1.79 18.34 -2.46 38.91 -1.57 65.64 2.80 33.66 5.59 48.08 6.93 48.08 4.58z"
       id="path11" />
    <path
       d="M581.67 725.58 c-10.73 -2.12 -21.69 -8.61 -34.55 -20.46 -12.64 -11.74 -12.97 -12.75 -13.53 -44.06 l-0.56 -26.17 -2.91 0.78 c-1.57 0.45 -21.69 1.12 -44.61 1.34 l-41.60 0.45 -5.93 -2.68 c-6.71 -3.13 -18.56 -12.08 -33.10 -24.94 -5.70 -5.03 -13.53 -10.96 -17.56 -13.31 l-7.27 -4.25 0.67 -5.70 c0.45 -3.13 1.01 -6.04 1.34 -6.49 0.22 -0.56 4.36 -0.89 9.06 -0.89 10.40 0 9.95 -0.22 27.28 16.33 7.27 6.93 16.88 14.87 21.80 17.89 l8.72 5.48 33.99 0.34 33.99 0.34 7.27 -3.69 c3.91 -2.01 7.38 -4.25 7.72 -4.92 0.22 -0.67 -0.67 -4.92 -1.90 -9.50 -3.02 -10.29 -4.25 -34.22 -2.35 -43.72 1.57 -7.27 5.14 -11.18 12.19 -13.19 5.81 -1.57 21.02 -1.45 27.62 0.34 7.16 1.90 20.02 9.39 26.17 15.32 8.05 7.83 9.06 11.18 9.06 32.43 0 22.36 -0.56 23.59 -11.52 29.07 -6.37 3.13 -8.72 3.58 -18.90 4.03 -6.26 0.34 -13.19 0.78 -15.10 1.12 l-3.69 0.56 0 26.84 c0 22.81 0.34 27.51 1.90 30.86 2.01 4.36 10.85 11.74 19.79 16.77 l5.70 3.13 27.95 0.34 c31.31 0.34 30.75 0.22 30.75 8.39 0 5.37 -4.25 10.06 -10.73 11.85 -5.03 1.45 -40.03 1.45 -47.19 0z"
       id="path12" />
    <path
       d="M741.57 653.68 c-11.29 -2.80 -22.36 -12.52 -29.97 -26.05 -12.75 -22.59 -7.72 -56.24 11.07 -74.58 8.16 -7.94 14.76 -11.52 24.38 -13.08 13.64 -2.24 25.72 1.57 36.23 11.41 8.72 8.16 15.43 20.46 17.44 31.64 1.79 10.51 0.78 28.63 -2.01 36.56 -4.81 13.31 -15.99 26.05 -28.18 31.98 -7.38 3.69 -19.34 4.58 -28.96 2.12z"
       id="path13" />
    <path
       d="M459.01 492.77 c-17.33 -5.81 -30.86 -19.90 -36.68 -38.24 -3.24 -10.40 -3.47 -29.41 -0.34 -38.58 5.37 -15.88 12.86 -26.05 24.49 -33.66 11.18 -7.27 29.52 -8.61 43.83 -3.24 5.14 2.01 8.50 4.36 14.65 10.51 11.18 11.29 15.77 22.14 16.88 39.81 1.68 27.40 -9.73 49.76 -30.64 60.05 -7.38 3.69 -9.50 4.14 -18 4.47 -5.93 0.22 -11.52 -0.22 -14.20 -1.12z"
       id="path14" />
  </g>
</svg>
