<?xml version="1.0" encoding="UTF-8" standalone="no"?>
<!-- Created with Inkscape (http://www.inkscape.org/) -->

<svg
   width="512"
   height="512"
   viewBox="0 0 512 512"
   version="1.1"
   id="svg1"
   xml:space="preserve"
   xmlns="http://www.w3.org/2000/svg"
   xmlns:svg="http://www.w3.org/2000/svg"><defs
     id="defs1" /><g
     id="layer1"
     style="display:inline"><path
       style="display:none;fill:#ebcd89"
       d="M 104.65234,0 C 46.675245,0 0,46.675245 0,104.65234 v 278.20899 l 2.8007813,-3.19727 c 1.5518588,-1.74863 5.2016135,-5.04967 8.0996097,-7.25 9.700236,-7.45071 20.151663,-18.90366 24.154296,-26.50195 1.050971,-1.94989 1.148726,-2.95238 1.300782,-11.40039 0.201249,-10.50076 -0.396882,-14.60228 -2.847657,-19.70508 -0.849721,-1.65025 -2.299004,-5.75029 -3.300781,-9.05078 -1.551859,-5.1028 -2.451014,-7.0524 -6.001953,-12.75 -4.199411,-6.80224 -6.649645,-11.85221 -8.800781,-18.25195 -1.198554,-3.45255 -1.199219,-3.84968 -1.199219,-21.75196 0,-17.20014 0.09783,-18.50212 1.09961,-22.65234 1.350609,-5.15199 2.451824,-7.45054 5.703124,-11.90039 2.652024,-3.60013 8.50224,-8.55202 11.802735,-10.05469 7.200267,-3.20211 18.90261,-4.15017 33.701172,-2.70117 4.60191,0.45169 9.449806,0.80078 10.849609,0.80078 2.549163,0 2.549039,4.3e-4 2.902344,1.80273 0.20125,1.00178 0.152421,7.24928 -0.04883,13.95313 -0.348833,11.55173 -0.299018,12.35332 0.751953,16.55273 2.652024,10.60363 7.400773,20.0044 15.052734,29.95508 2.750413,3.60014 6.900501,8.3485 9.199221,10.54883 4.00263,3.85058 4.25,4.20051 4.25,6.15039 0,1.94989 -2.04959,8.89831 -4.45117,14.94922 -0.59928,1.449 -2.95092,6.20415 -5.298832,10.50195 -2.298719,4.30227 -5.049371,9.69877 -6.001953,12.00196 -1.699442,3.89977 -1.748447,4.24944 -1.050781,5.34961 1.301414,1.99908 3.599896,2.25 19.802736,2.25 11.35048,0 17.95184,0.25062 25.75586,1.00195 5.75127,0.55008 11.64902,1.00195 13.04883,1.00195 4.85235,0 5.04908,0.49924 2.70117,7.85156 -0.80053,2.54917 -1.49805,5.34987 -1.49805,6.15039 0,2.35239 1.30296,4.94992 2.75196,5.5 0.75133,0.29964 6.30028,0.50196 12.40039,0.50196 6.1001,0 11.60096,0.15124 12.2539,0.29883 l 1.09961,0.30078 v 15.35156 c 0,8.55088 0.20232,16.09979 0.50195,17.10156 0.64848,2.24953 2.59757,5.00016 8,11.20313 11.00166,12.6519 11.5528,12.95287 16.55274,9.0039 3.20211,-2.54916 5.75058,-2.45158 10.29883,0.29883 4.99993,3.05005 9.80357,6.8028 15.15234,11.80274 2.59836,2.45077 6.64957,5.84975 9.00195,7.5 7.49991,5.40243 19.40075,12.15039 21.4043,12.15039 0.25045,0 0.70232,-0.55075 1.00195,-1.19922 0.64848,-1.449 0.15189,-1.99759 -4.15039,-4.30078 -9.99987,-5.34877 -20.304,-12.65284 -27.45507,-19.45508 -3.09925,-2.90247 -7.75069,-6.75295 -10.35352,-8.55078 l -4.69922,-3.25196 -0.39844,-2.75 c -0.25044,-1.49819 -0.55005,-3.30074 -0.64843,-3.94921 -0.15206,-0.64848 -1.49893,-2.35215 -3.05079,-3.75196 -4.40066,-4.05183 -4.35148,-3.94807 -4.55273,-16.55078 l -0.15234,-11.00195 1.80273,-7 c 0.94811,-3.85058 2.10161,-7.30278 2.54883,-7.75 0.59928,-0.59928 2.40192,-0.75037 10.35351,-0.70117 h 9.60157 l 10.95312,2.79882 c 9.70024,2.49997 11.80213,3.25188 18.75196,6.60157 9.3514,4.49905 12.40114,5.75032 20.0039,8.40234 6.25216,2.15114 20.50061,9.20035 23.30469,11.55273 0.94811,0.80053 2.75169,2.9997 4.00391,4.9004 2.49996,3.85057 3.55095,4.60292 4.55273,3.20312 2.24952,-3.05005 -0.64966,-7.70098 -7.35352,-11.90039 -5.25038,-3.34969 -17.69993,-9.25427 -25.95117,-12.35352 -4.55271,-1.69944 -12.50157,-5.20083 -17.75195,-7.75 -8.55088,-4.2486 -10.20105,-4.85215 -16.25195,-6.25195 -3.69853,-0.84972 -8.45173,-1.99874 -10.5,-2.54883 -3.14844,-0.84972 -5.2495,-1.00158 -13.40235,-1.05078 -9.60184,0 -9.65204,-6.3e-4 -11.55273,1.30078 -1.00178,0.70214 -2.84934,2.65249 -4.10156,4.30274 -2.79961,3.75219 -4.19789,3.94841 -8.09766,1.09961 -1.449,-1.05097 -3.69924,-2.54909 -5.10352,-3.34961 -4.15021,-2.35239 -6.20231,-4.30202 -9.65039,-8.95313 l -3.30078,-4.44922 -13.34961,-8.80273 c -7.35232,-4.85235 -15.30406,-9.90098 -17.70117,-11.30078 -5.89885,-3.39889 -10.35423,-7.20067 -21.75391,-18.50196 -5.70207,-5.59921 -11.55117,-10.90175 -14.00195,-12.65039 -7.05268,-4.99993 -9.90037,-7.90394 -15.101563,-15.65429 -5.102798,-7.5491 -8.899646,-14.95008 -11.050782,-21.70313 -2.799607,-8.45249 -2.903275,-9.802 -2.849609,-25.95117 0.09839,-9.15015 -0.0988,-15.95408 -0.398437,-17.30469 -0.348833,-1.3998 -0.599244,-11.94954 -0.648438,-27.5039 -0.09839,-24.40488 -0.09728,-25.40122 0.949219,-29.6543 0.599277,-2.40158 1.649424,-5.59926 2.351562,-7.05273 3.251301,-6.90063 11.153249,-14.85328 18.353518,-18.60547 2.54916,-1.30142 6.65115,-3.69778 9.05273,-5.29883 5.34877,-3.60013 7.49851,-4.40039 11.80079,-4.40039 4.55271,0 15.55116,-1.2527 20.05468,-2.25 2.04828,-0.50089 4.64984,-1.05034 5.75,-1.30078 1.10017,-0.20125 7.2006,-0.39844 13.50196,-0.39844 l 11.5039,-0.0488 2.5,1.39844 c 1.39981,0.80053 4.19921,2.45147 6.25196,3.69922 7.40151,4.49905 14.30192,8.40342 17.75,10 l 3.50195,1.65039 h 8.50195 8.5 l 3.75391,-1.69922 3.69726,-1.69922 12.05274,0.54883 c 10.05354,0.45169 13.203,0.75225 19.2539,2 4.00264,0.84972 9.5035,1.74919 12.25391,2.04883 9.85229,1.10016 14.65089,2.29825 34.35547,8.59961 5.95252,1.90069 12.00254,3.94898 13.40234,4.55273 l 2.59766,1.14844 -0.25,2.10351 c -0.20125,1.74864 -0.75081,2.69995 -3.59961,5.75 -4.05183,4.40066 -6.80324,8.90046 -8.4043,13.90039 -1.69944,5.25039 -2.24838,9.30158 -2.84765,20.5 -0.29964,5.34877 -0.75151,12.35352 -1.00196,15.50196 -0.64847,7.60276 -0.59927,16.30076 0,21.50195 0.29964,2.35239 1.64939,8.84907 3,14.50195 3.69853,15.5007 4.00359,17.70235 4.5,30.25586 0.20125,6.35055 0.70232,12.40179 1.00196,13.50196 0.80052,2.75041 3.54967,7.54792 5.75,10.10156 1.00177,1.19855 3.25295,3.10064 5.05078,4.25 2.90247,1.94988 3.20117,2.24855 3.20117,3.84961 0,2.20033 3.85129,9.30268 8.25195,15.15234 1.8515,2.40158 5.84909,6.64909 9.44922,9.90039 6.69938,6.1001 8.3493,8.00131 12.30274,14.50391 1.44899,2.35238 3.4002,5.40293 4.45117,6.80273 2.20033,3.20211 13.10238,14.80197 23.65234,25.30274 6.75305,6.75304 7.90235,8.09897 7.90235,9.40039 0,0.89891 -0.30026,1.65068 -0.75196,1.80273 -1.10016,0.4517 -9.00135,-0.59787 -15.95117,-2.04687 -3.34969,-0.70214 -7.19981,-1.49863 -8.59961,-1.80274 -4.10102,-0.80052 -6.50365,-4.19949 -8.85156,-12.70117 -0.70214,-2.40158 -1.4976,-4.60307 -1.74805,-4.85351 -0.94811,-0.94811 -4.85313,-1.34925 -13.25195,-1.39844 -7.90241,0 -8.6486,-0.0997 -11.70313,-1.30274 -3.2021,-1.30141 -3.34901,-1.29987 -4.00195,-0.39648 -0.89891,1.19855 -0.8006,2.49941 0.20117,4.24805 1.65025,2.75041 3.34796,3.14901 14.34961,3.45312 8.15285,0.20125 10.00114,0.39625 10.30078,1 0.25045,0.39803 1.64932,3.39946 3.20117,6.60156 3.05006,6.25216 5.20253,8.7521 9.00391,10.40235 2.45078,1.10016 12.3024,3.35023 18,4.10156 2.20033,0.29964 4.24797,0.70166 4.44922,0.89844 0.20125,0.20125 0.59953,2.10138 0.80078,4.24804 0.4517,3.75219 1.4977,6.14951 2.95117,6.65039 0.34884,0.0984 1.10031,-0.8486 1.65039,-2.19921 1.00178,-2.15114 1.05196,-2.90238 0.70313,-8.55079 l -0.34961,-6.15039 h 2.59961 c 3.14844,0 5.5992,1.00319 21.25195,8.80274 11.94976,5.95252 11.251,5.70036 25.95117,9.14844 2.40158,0.55008 5.40301,1.49976 6.60157,2.10351 1.94988,0.89892 2.19921,1.25059 2.19921,2.65039 0,1.449 -0.50098,1.9998 -4.35156,5.10352 -2.45077,1.90069 -5.84809,4.55303 -7.65039,5.80078 -2.70122,1.90069 -23.10467,14.75301 -34.2539,21.55078 -1.65025,1.00178 -6.14943,3.05007 -10,4.55273 -3.85058,1.449 -14.20259,6.25364 -23.00391,10.6543 -10.8004,5.40244 -17.6519,8.55059 -21.05078,9.60156 -2.75041,0.84973 -9.05158,2.90249 -13.95313,4.55274 l -8.95312,2.95117 -1.35156,6.65039 c -1.94989,9.8031 -3.09965,14.0026 -5.59961,20.40234 -1.25222,3.14844 -2.99989,8.2511 -3.84961,11.25196 -0.89892,3.05005 -2.04953,6.69887 -2.59961,8.15234 L 319,512 h 88.34766 C 465.32475,512 512,465.32475 512,407.34766 V 104.65234 C 512,46.675245 465.32475,0 407.34766,0 Z"
       id="path69" /><g
       id="g1"
       transform="matrix(0.44722158,0,0,0.44722158,-0.0476196,-0.04121219)"
       style="display:inline"><g
         fill="#fbf6e5"
         id="g2"
         style="display:inline"><path
           d="M 713.39943,1144.9385 H 524.73019 v 0.1136 h 94.25819 94.37174 z"
           id="path70" /><path
           d="m 348.31,1130.24 c 0.78,-14.31 1.01,-15.32 6.15,-28.4 3.02,-7.49 7.27,-20.57 9.5,-29.07 5.93,-22.7 7.04,-24.82 24.04,-42.6 8.16,-8.5 16.66,-17.89 19.01,-21.02 7.72,-10.29 6.93,-10.06 26.72,-10.4 10.4,-0.22 19.12,0.11 21.47,0.78 5.93,1.79 11.74,7.94 23.26,24.82 5.59,8.27 13.42,19.34 17.33,24.71 6.15,8.39 7.83,11.74 12.52,25.72 5.14,15.54 5.37,16.33 5.37,29.97 0.11,7.72 -0.34,19.9 -0.89,27.17 L 511.78,1145 H 429.59 L 347.55494,1143.3929 348.3,1130.24 Z"
           id="path2" /></g><path
         d="m 713.39943,1144.9385 0.0349,-0.092 c -2.67723,-0.1797 -4.46076,-0.4813 -4.51573,-0.8167 -2.2e-4,0 0,-0.01 0,-0.01 v -0.031 c 0,-0.56 1.01248,-3.1328 2.12248,-5.8128 1.23,-2.68 4.02826,-11.177 6.25826,-18.897 2.24,-7.72 6.3712,-19.7911 9.1712,-26.8411 5.59,-14.31 8.27089,-23.7102 12.52089,-45.6202 l 3.01776,-14.8705 20.01944,-6.5989 c 10.96,-3.69 25.04958,-8.27 31.19958,-10.18 7.6,-2.35 22.92014,-9.3894 47.07014,-21.46938 19.68,-9.84 42.70946,-20.56894 51.31946,-23.81894 16.44,-6.37 19.3432,-7.94238 65.7532,-37.01238 35.56456,-22.29609 52.64899,-34.50756 62.88399,-45.55907 -0.657,-0.91073 -1.9004,-1.63218 -4.2144,-2.69896 -2.68,-1.35 -9.3913,-3.47352 -14.7613,-4.70352 -32.87002,-7.71 -31.30758,-7.14616 -58.02758,-20.45616 -35,-17.44 -40.47997,-19.68316 -47.51997,-19.68316 h -5.8128 l 0.78174,13.75244 c 0.78,12.63 0.66779,14.30979 -1.57221,19.11979 -1.23,3.02 -2.91032,5.13751 -3.69032,4.91751 -3.25,-1.12 -5.5889,-6.48046 -6.5989,-14.87046 -0.45,-4.8 -1.34057,-9.04875 -1.79057,-9.49875 -0.45,-0.44 -5.02858,-1.33893 -9.94858,-2.00893 -12.74,-1.68 -34.7685,-6.71121 -40.2485,-9.17121 -8.5,-3.69 -13.31299,-9.27993 -20.13299,-23.25993 -3.47,-7.16 -6.59791,-13.87128 -7.15791,-14.76128 -0.67,-1.35 -4.80283,-1.78603 -23.03283,-2.23603 -24.6,-0.68 -28.39613,-1.57128 -32.08613,-7.72128 -2.24,-3.91 -2.45983,-6.81875 -0.44983,-9.49875 1.46,-2.02 1.78848,-2.02345 8.94848,0.88655 6.83,2.69 8.49852,2.91295 26.16852,2.91295 18.78,0.11 27.51174,1.00694 29.63174,3.12694 0.56,0.56 2.33868,5.4826 3.90868,10.8526 5.25,19.01 10.62234,26.61018 19.79234,28.40018 3.13,0.68 11.73897,2.46096 19.22897,4.03096 15.54,3.24 33.20726,5.58687 35.66726,4.57687 1.01,-0.34 1.68139,-2.02096 1.68139,-4.03096 0,-2.91 -2.56986,-5.91954 -17.66986,-21.01954 -23.59,-23.48 -47.9673,-49.41763 -52.8873,-56.57763 -2.35,-3.13 -6.71295,-9.9511 -9.95295,-15.2111 -8.84,-14.54 -12.52926,-18.79114 -27.50926,-32.43114 -8.05,-7.27 -16.98872,-16.76755 -21.12872,-22.13755 -9.84,-13.08 -18.45159,-28.96107 -18.45159,-33.88107 0,-3.58 -0.66792,-4.24783 -7.15792,-8.60783 -4.02,-2.57 -9.05368,-6.82312 -11.29368,-9.50312 -4.92,-5.71 -11.06716,-16.43738 -12.85716,-22.58738 -0.67,-2.46 -1.7904,-15.99075 -2.2404,-30.19075 -1.11,-28.07 -1.79213,-32.99295 -10.06213,-67.65295 -3.02,-12.64 -6.03808,-27.16677 -6.70808,-32.42677 -1.34,-11.63 -1.45,-31.07897 0,-48.07897 0.56,-7.04 1.57039,-22.7028 2.24039,-34.6628 1.34,-25.04 2.56744,-34.09858 6.36744,-45.83858 3.58,-11.18 9.73225,-21.24166 18.79225,-31.08166 6.37,-6.82 7.59883,-8.94716 8.04883,-12.85716 l 0.15722,-1.31891 c -1.04547,-0.39985 -1.82651,-0.62452 -2.24477,-0.62452 -1.57,0 -4.81146,-1.00811 -7.27146,-2.11811 -2.35,-1.12 -15.42918,-5.69858 -28.95918,-9.94858 -44.5,-14.2 -55.0117,-16.77251 -77.1517,-19.34251 -6.15,-0.67 -18.45008,-2.68124 -27.40008,-4.58124 -12.86,-2.57 -21.13096,-3.57851 -39.92096,-4.35851 l -23.70976,-1.11801 -8.15801,3.69032 -8.16237,3.68595 h -22.36028 -22.35592 l -7.83046,-3.68595 c -7.72,-3.69 -23.1495,-12.30028 -39.6895,-22.36028 -4.58,-2.8 -10.85391,-6.49156 -13.98391,-8.27156 l -5.59007,-3.13131 -22.35591,0.10918 c -12.3,0 -24.38108,0.45092 -26.84108,0.89092 -2.46,0.56 -8.27152,1.79295 -12.86152,2.91295 -10.06,2.24 -34.65848,5.02669 -44.83848,5.02669 -9.62,0 -14.42125,1.7894 -26.39125,9.8394 -5.37,3.58 -14.5378,8.9527 -20.2378,11.8527 -16.1,8.39 -33.77334,26.16798 -41.04334,41.59798 -1.57,3.24 -3.91024,10.40011 -5.14024,15.77011 -2.35,9.39 -2.4604,12.19025 -2.2404,62.84025 0.22,38.35 0.67139,55.01167 1.68139,59.93167 1.12,5.14 1.34092,15.09974 0.89092,37.78974 -0.56,33.66 -0.21993,37.34879 5.59007,55.56879 5.14,16.33 13.30886,32.54019 25.26886,50.21019 11.63,17.33 18.00188,23.81908 33.77188,34.99908 5.48,3.91 18.55876,15.77099 31.30876,28.29099 25.49,25.27 35.44798,33.77089 48.63798,41.37089 5.37,3.13 23.15032,14.41887 39.58032,25.26887 l 29.8501,19.67879 7.38064,9.95294 c 7.72,10.4 12.30291,14.75944 21.58291,20.01944 3.13,1.79 8.26997,5.259 11.62997,7.599 3.35,2.46 6.25808,3.90968 6.70808,3.34968 3.58,-5.7 10.28808,-13.18783 13.74808,-15.64783 l 4.25369,-2.91295 24.93696,0.11355 c 21.58,0 25.94288,0.33957 33.21288,2.34957 4.58,1.23 15.20829,3.79926 23.47829,5.69926 13.53,3.13 17.21982,4.46954 36.33982,13.97954 11.74,5.7 29.5195,13.52922 39.6895,17.32922 19.01,7.16 46.07092,20.02035 58.59092,27.95035 9.28,5.81 15.8784,13.07978 17.4384,19.11978 3.02,11.18 -3.23932,19.78947 -11.28932,15.42947 -1.23,-0.67 -4.46709,-4.58056 -7.26709,-8.83056 -2.68,-4.25 -6.71056,-9.05823 -8.83056,-10.84823 -6.26,-5.26 -38.12994,-21.02224 -52.10994,-25.83224 -17,-5.93 -23.82366,-8.71788 -44.73366,-18.78788 -15.54,-7.49 -20.2399,-9.0621 -41.9299,-14.6521 l -24.48712,-6.25825 -18.11096,-0.10919 c -14.87,-0.11 -18.44797,0.21784 -19.78797,1.56784 -1.01,1.01 -3.58362,8.72359 -5.70362,17.33359 l -4.0266,15.64783 0.33628,21.251 c 0.45,24.38 0.56004,24.81834 10.18004,33.65834 3.47,3.13 6.49163,6.92947 6.82163,8.38947 0.22,1.45 0.88993,5.48056 1.44993,8.83056 l 0.89092,6.14908 10.50758,7.27146 c 5.81,4.03 16.21075,12.63978 23.15075,19.11978 15.99,15.21 39.02033,31.5321 61.39033,43.5021 3.69,2.01 7.60138,4.35735 8.72138,5.36735 2.35,2.12 2.45918,7.04078 0.10918,11.52078 -1.57,3.13 -2.00843,3.35149 -5.80843,2.68149 -6.49,-1.23 -14.31182,-4.80907 -28.18182,-13.18907 -17.89,-10.73 -30.0789,-19.68313 -42.4889,-31.31313 -16.1,-15.1 -38.34981,-30.96812 -43.37981,-30.96812 -1.12,0 -3.6928,1.45132 -5.8128,3.13132 -5.81,4.81 -8.26791,5.80843 -14.19791,5.80843 -6.71,0 -10.61904,-2.35113 -17.77904,-10.62113 -3.02,-3.47 -8.7188,-9.95064 -12.6388,-14.42064 -10.4,-11.63 -16.66177,-20.3505 -18.00177,-25.0505 -0.67,-2.46 -1.12238,-18.55876 -1.12238,-38.34876 v -34.33089 l -2.45876,-0.66819 c -1.45,-0.34 -13.75008,-0.67255 -27.40008,-0.67255 -13.64,0 -26.04762,-0.44801 -27.72762,-1.11801 -6.82,-2.57 -8.05295,-16.32886 -2.91295,-32.30886 3.58,-11.41 3.68928,-11.28932 -5.93072,-11.28932 -3.13,0 -16.32754,-1.0104 -29.17754,-2.2404 -17.44,-1.68 -32.20083,-2.24039 -57.59083,-2.24039 -20.24,0 -35.77875,-0.45157 -38.34875,-1.23157 -5.59,-1.45 -7.94146,-5.25723 -7.27146,-11.40723 0.56,-4.81 8.05028,-21.0217 22.36028,-48.3017 6.04,-11.41 16.55185,-38.91228 16.55185,-43.05228 0,-0.78 -4.25312,-5.47758 -9.50312,-10.50758 -5.14,-4.92 -14.41971,-15.54185 -20.56971,-23.59185 -17.11,-22.25 -27.61834,-43.15957 -33.65834,-67.08957 -2.46,-9.62 -2.46057,-11.29121 -1.79057,-38.02121 0.45,-15.43 0.44918,-29.4073 0.10918,-31.0773 -0.78,-2.8 -1.22743,-3.02213 -6.36743,-3.02213 -3.13,0 -13.98004,-0.78057 -24.26004,-1.79057 -30.3,-2.91 -52.891779,-1.01011 -68.661779,6.03989 -7.38,3.35 -20.461245,14.42257 -26.391245,22.48257 -7.27,9.95 -9.7288,15.09961 -12.6388,26.60961 -2.35,9.17 -2.567938,12.4116 -2.567938,47.3016 0,36.45 0.107119,37.6783 2.677119,45.2883 4.81,14.31 10.293161,25.61188 19.683161,40.81188 7.94,12.75 9.946169,17.10936 13.416169,28.50936 2.24,7.38 5.480639,16.5478 7.380639,20.2378 5.7,11.74 6.821807,20.24078 6.371807,47.41078 -0.34,22.48 -0.558584,24.38 -2.908584,28.85 -8.83,16.55 -32.543483,42.83001 -52.223483,57.70001 -5.48,4.25 -14.417975,12.29822 -19.7879749,17.88822 l -0.065509,0.0699 C 45.290605,1007.3456 175.35284,1125.2244 336.41471,1142.6981 l 0.39742,-16.3684 h -0.0218 l 0.34064,-18.7879 4.69916,-9.8437 c 2.8,-5.59 5.93128,-14.976 7.72128,-22.356 3.02,-12.41 6.71004,-23.4843 10.18004,-30.3043 1.01,-1.9 8.1593,-10.0565 15.8793,-18.1065 9.73,-10.06 15.77043,-17.3298 19.46043,-23.7098 2.91,-5.03 6.70719,-10.1816 8.26719,-11.4116 4.25,-3.24 12.5196,-5.26181 26.6096,-6.37181 19.34,-1.34 27.40214,-1.11843 31.87214,1.23157 7.6,4.03 20.34943,18.67134 34.09943,39.02134 17.22,25.49 20.69042,31.8707 26.50042,48.8607 l 4.80834,13.9795 0.34064,28.2866 0.44983,28.1207 z M 470.79038,379.33037 c 11.36375,-0.1825 22.7162,4.70761 32.0512,14.71761 26.05,27.84 18.44872,75.47298 -14.76128,91.91298 v 0.009 c -12.41,6.15 -22.13943,6.15082 -34.09943,-0.10918 -18.56,-9.62 -30.86057,-30.19174 -30.64057,-51.44174 0,-13.64 6.15028,-29.40759 15.32028,-39.35759 9.39,-10.29 20.76605,-15.54831 32.1298,-15.73081 z M 264.25913,411.9362 c 0.66685,0.006 1.43886,0.45449 2.75136,1.34511 5.81,3.57 9.28064,7.70939 14.42064,16.87939 4.25,7.49 6.48897,10.17064 12.18897,14.42064 9.96,7.27 14.20944,12.29894 20.01944,23.81894 5.82,11.63 9.73224,16.54993 18.79224,23.25993 10.06,7.38 13.07691,10.07054 14.75691,13.42054 2.12,3.92 2.12273,10.5111 0.22273,15.2111 l -0.0218,-0.0131 c -0.89,2.01 -2.33968,4.25106 -3.34968,5.03106 -1.56,1.35 -2.12205,0.79132 -4.47205,-3.90868 -1.57,-2.91 -3.46933,-7.60277 -4.24933,-10.40277 -1.12,-3.57 -3.12791,-6.47776 -7.15791,-10.05776 -13.42,-12.08 -19.22912,-18.68107 -23.36912,-26.84107 -6.82,-13.08 -8.05085,-14.42078 -17.11085,-18.56078 l -8.27156,-3.7995 -4.24932,-9.38957 c -2.68,-5.59 -6.58776,-11.84783 -10.05776,-15.64783 -6.26,-6.82 -6.93405,-9.49989 -3.35405,-13.07989 1.13157,-1.13157 1.75541,-1.69289 2.51117,-1.68576 z m 287.65278,134.82551 c 3.92789,-0.10143 8.09644,0.37614 12.20644,1.46739 7.16,1.9 20.02289,9.39029 26.17289,15.32029 7.72,7.6 9.05766,11.51273 9.05766,29.07273 0,18.56 -0.90079,20.45869 -11.52079,25.71869 -6.38,3.14 -8.71706,3.58096 -18.89706,4.03096 -6.27,0.34 -13.20192,0.77802 -15.10192,1.11802 l -3.69032,0.559 v 30.19075 c 0,25.95 0.21975,30.87171 1.89975,34.22171 2.01,4.36 10.84234,11.74021 19.79234,16.77021 l 5.69925,3.12695 28.18182,0.34064 c 26.95,0.33 28.28819,0.45231 29.51819,2.57231 1.56,2.91 -0.8999,6.93666 -6.0399,9.61666 v -0.0262 c -2.91,1.68 -6.81936,2.01603 -21.46936,2.23603 -19.67,0.23 -24.59042,-0.43687 -33.54042,-4.57687 -8.17,-3.69 -14.08976,-7.94021 -23.70976,-16.77021 -12.64,-11.75 -12.96972,-12.75111 -13.52972,-44.06111 l -0.559,-26.16852 -6.26263,0.77737 c -3.46,0.34 -23.48138,0.89157 -44.61138,1.23157 l -38.23957,0.559 -5.92635,-2.67712 c -6.71,-3.14 -18.5637,-12.08132 -33.1037,-24.94132 -5.71,-5.03 -13.3073,-10.74153 -16.9973,-12.86153 -5.92,-3.47 -6.59181,-4.13791 -6.37181,-7.15791 0.34,-3.02 0.78915,-3.35032 4.69915,-3.69032 2.46,-0.22 5.59,-0.10935 7.04,0.34065 1.45,0.34 9.17003,6.81855 17.22003,14.53855 8.28,7.94 18.23075,16.20897 23.15075,19.22897 l 8.61221,5.3717 37.45783,0.34065 37.57139,0.34064 7.15791,-3.91304 c 6.93,-3.58 7.26337,-4.01801 7.60337,-8.15801 0.23,-2.46 -0.7833,-8.17235 -2.0133,-12.75235 -3.02,-10.4 -4.13958,-28.39801 -2.34958,-37.00801 1.01,-4.81 2.23916,-7.16121 4.69916,-9.17121 3.775,-3.2125 9.64725,-4.98867 16.19373,-5.15771 z"
         style="display:inline;fill:#fbf6e5;fill-opacity:1"
         id="path18" /><path
         d="M 377.99085,0.09215161 C 168.64232,0.09215161 0.10647876,168.62799 0.10647876,377.97653 v 389.07761 c 0,21.0834 1.70784484,41.75001 4.99612514,61.87509 2.1131033,-1.58826 4.8283984,-3.55974 7.7169171,-5.60754 20.8,-14.87 34.43922,-28.50986 46.17922,-46.51986 6.71,-10.29 8.053195,-15.54033 8.053195,-32.54033 0,-15.77 -1.341807,-23.15362 -6.371807,-34.55362 -2.24,-5.03 -5.808827,-14.64936 -8.048827,-21.46936 -2.91,-8.61 -7.599467,-18.78933 -15.429467,-33.09933 -12.41,-22.36 -17.560432,-35.67018 -19.460432,-50.21018 -1.9,-13.64 -0.672979,-78.26951 1.677021,-90.34951 3.47,-17.89 10.403725,-29.30096 28.513725,-46.96096 18.79,-18.34 32.649153,-22.91847 69.439151,-23.02847 11.96,-0.11 28.50819,0.34092 36.55819,0.89092 l 14.87046,1.00883 v -47.62914 c 0,-51.21 0.89106,-65.08284 5.03106,-80.73284 3.8,-14.54 6.92748,-20.90834 16.54748,-33.65834 9.62,-12.75 18.90018,-21.80117 28.40018,-27.84117 34.77,-21.69 40.81128,-25.93729 43.61128,-31.07729 0.78,-1.34 1.44992,-4.9232 1.44992,-8.0532 0.22,-24.49 6.60065,-35.66926 36.23065,-63.39926 7.04,-6.6 17.66975,-17.99968 23.70975,-25.15968 13.75,-16.44 20.0194,-22.69875 38.6894,-38.348754 14.65,-12.3 33.0989,-25.489108 42.4889,-30.409108 5.7,-2.91 19.68232,-3.4732 24.38232,-1.0132 10.4,5.59 16.54812,14.201885 23.92812,33.771885 2.68,7.04 9.28292,22.808257 14.54292,35.108257 5.37,12.3 12.85666,31.64228 16.65666,43.05228 4.47,13.31 9.28135,24.82114 13.31135,32.43114 7.27,13.53 26.61214,39.68709 31.87214,43.15709 3.02,2.01 5.69663,2.46213 21.24663,3.02213 10.85,0.45 23.93107,1.67759 33.88107,3.46759 8.95,1.57 22.48074,3.58124 30.19074,4.58124 22.59,3.02 41.59926,8.05003 92.24926,24.26003 27.4,8.83 32.42837,11.07092 50.87837,22.70092 7.04,4.47 19.46008,11.96103 27.40008,16.66103 17.11,10.06 27.73039,19.22933 38.13039,33.09933 4.92,6.49 8.72196,10.39823 10.51196,10.84823 3.58,0.89 19.90042,-1.12096 33.54042,-4.03096 10.29,-2.24 13.87064,-2.34958 100.97064,-2.34958 99.95996,0 96.49696,-0.21936 118.52696,7.38064 14.98,5.26 18.451,7.4889 21.251,13.6389 4.25,9.84 0.669,23.26377 -18.111,67.54377 -6.04,14.31 -12.8575,30.8561 -15.0975,36.6761 -4.36,11.63 -13.4222,24.82369 -27.2822,40.14369 -10.4,11.52 -11.1775,12.85837 -11.9575,22.02837 -1.45,14.2 3.9092,48.63915 11.7392,76.47915 1.79,6.49 3.7976,15.31961 4.4676,19.56961 0.67,4.81 1.1224,48.85961 1.1224,113.15961 0,94.15 -0.2205,105.89086 -1.7905,110.70086 -2.68,7.72 -20.3487,36.79263 -25.7187,42.15263 -6.71,6.71 -56.1311,39.46776 -91.5811,60.71776 -16.66,9.95 -26.84036,14.75912 -49.76036,23.36912 -20.69,7.72004 -28.63142,11.41244 -54.79142,25.38244 -14.42,7.6 -21.57897,10.3999 -48.07897,18.6699 -8.27,2.57 -16.99897,5.6973 -19.22897,6.8173 -4.7,2.35 -4.47021,1.7905 -9.73021,25.0505 -1.79,8.05 -5.81057,21.5807 -8.83057,30.1907 -4.81,13.75 -7.49088,22.4816 -12.52088,41.7116 l -1.20536,4.6074 h 36.99491 c 209.34853,0 377.88433,-168.53582 377.88433,-377.88436 V 377.97653 C 1144.9528,168.62799 976.417,0.09215161 767.06847,0.09215161 Z"
         style="display:inline;fill:#ebcd89"
         id="path1" /><g
         fill="#ebcd89"
         id="g3"
         transform="translate(-1158.9541,4.7433271)"
         style="display:inline"><path
           d="m 726.81,1142.99 c 0,-3.69 8.72,-34.22 13.98,-48.86 2.91,-7.94 6.71,-21.02 8.5,-29.07 5.26,-23.26 5.03,-22.7 9.73,-25.05 2.24,-1.12 10.96,-4.25 19.23,-6.82 26.5,-8.27 33.66,-11.07 48.08,-18.67 26.17,-13.98 34.1,-17.67 54.79,-25.38 22.92,-8.61 33.1,-13.42 49.76,-23.37 35.45,-21.25 84.87,-54.01 91.58,-60.72 5.37,-5.37 23.03,-34.44 25.72,-42.15 1.57,-4.81 1.79,-16.33 1.79,-107.34 0,-62.06 -0.45,-105 -1.12,-109.8 -0.67,-4.25 -2.68,-13.08 -4.47,-19.57 -8.16,-29.07 -12.97,-61.39 -11.96,-79.84 0.78,-12.64 1.01,-12.97 12.19,-25.38 13.87,-15.32 22.92,-28.51 27.28,-40.14 2.24,-5.81 8.72,-21.69 14.54,-35.22 12.08,-28.63 16.21,-39.58 18.79,-50.09 1.79,-7.16 1.79,-7.72 -0.22,-12.3 -2.68,-6.04 -6.26,-8.39 -21.25,-13.53 -22.25,-7.72 -18.79,-7.49 -118.75,-7.16 -89.45,0.45 -90.01,0.45 -99.52,2.91 -9.62,2.57 -29.85,4.47 -34.77,3.24 -1.68,-0.45 -5.59,-4.58 -10.4,-10.85 -10.4,-13.87 -21.02,-23.03 -38.13,-33.1 -7.94,-4.7 -20.35,-12.19 -27.4,-16.66 -18.45,-11.63 -23.48,-13.87 -50.88,-22.7 -50.65,-16.21 -69.66,-21.25 -92.25,-24.26 -7.72,-1.01 -21.25,-3.02 -30.19,-4.58 -9.95,-1.79 -23.03,-3.02 -33.88,-3.47 -15.54,-0.56 -18.23,-1.01 -21.25,-3.02 -5.26,-3.47 -24.6,-29.63 -31.87,-43.16 -4.03,-7.6 -8.83,-19.12 -13.31,-32.43 -3.8,-11.41 -11.29,-30.75 -16.66,-43.05 -5.26,-12.3 -11.85,-28.07 -14.54,-35.11 -7.38,-19.46 -13.64,-28.4 -23.82,-33.66 -4.14,-2.12 -12.52,-1.68 -17.78,1.01 -13.87,7.04 -47.3,32.87 -63.74,49.09 -3.58,3.47 -11.41,12.3 -17.44,19.57 -6.04,7.16 -16.66,18.56 -23.71,25.16 -29.63,27.73 -36,38.91 -36.23,63.4 -0.11,10.73 -1.34,11.85 -45.06,39.14 -9.5,6.04 -18.79,15.1 -28.4,27.84 -9.62,12.75 -12.75,19.12 -16.55,33.66 -4.14,15.65 -5.03,29.52 -5.03,80.84 v 47.52 l -18.11,-1.01 c -61.72,-3.47 -80.62,0.67 -102.76,22.14 -18.11,17.67 -25.05,29.07 -28.51,46.96 -2.24,12.08 -3.47,70.22 -1.68,83.53 1.9,14.65 7.04,27.84 19.46,50.32 7.83,14.31 12.52,24.49 15.43,33.1 2.24,6.82 5.81,16.44 8.05,21.47 5.26,11.85 6.37,18.67 6.37,37.91 0,20.46 -1.12,25.16 -8.05,35.89 -11.74,18 -25.27,31.64 -46.18,46.52 -6.15,4.36 -11.29,8.27 -11.52,8.83 -0.22,0.45 -1.34,0.89 -2.57,0.89 C 0,836.41 0,829.59 0,418.22 V 0.03 H 572.5 1145 v 572.5 572.5 H 935.9 c -199.93,0 -209.1,-0.11 -209.1,-2.01 z"
           id="path3" /></g><g
         fill="#dcb46f"
         id="g4"
         style="display:inline"><path
           d="m 1016.3,891.85 c 1.79,-2.12 -5.7,-5.7 -18.45,-8.61 -32.87,-7.72 -31.31,-7.16 -58.03,-20.46 -40.14,-19.9 -46.4,-22.25 -46.4,-17.44 0,3.02 -4.03,3.02 -4.81,0 -0.34,-1.23 -2.12,-3.13 -3.91,-4.14 -3.69,-2.12 -6.04,-6.71 -2.8,-5.48 5.26,2.01 1.79,-2.35 -13.98,-18.11 -40.92,-40.7 -50.76,-52.33 -67.87,-79.73 -2.57,-4.14 -9.17,-11.63 -15.65,-17.78 -20.13,-19.12 -25.94,-25.38 -32.87,-35.78 -9.39,-14.09 -16.55,-28.96 -14.54,-30.3 1.23,-0.67 1.12,-1.01 -0.45,-1.68 -1.01,-0.34 -1.9,-1.23 -1.9,-1.9 0,-0.67 2.46,-0.78 7.49,-0.22 13.75,1.68 18.34,1.34 25.05,-2.01 17.22,-8.39 29.41,-26.72 30.86,-46.18 2.24,-29.85 -19.46,-58.7 -44.06,-58.7 -7.6,0 -12.75,1.68 -20.24,6.49 -11.74,7.83 -21.25,22.48 -24.04,37.12 -0.89,5.03 -1.79,6.82 -3.13,6.82 -1.57,0 -1.9,-2.35 -2.46,-16.44 -0.78,-18.67 -2.01,-26.17 -9.73,-58.48 -3.02,-12.64 -6.04,-27.17 -6.71,-32.43 -1.34,-11.74 -1.45,-37.68 0,-54.79 0.56,-7.04 1.57,-22.7 2.24,-34.66 1.34,-25.05 2.57,-34.1 6.37,-45.84 3.58,-10.96 9.73,-21.25 18.45,-30.75 8.39,-9.17 9.5,-11.29 6.26,-12.08 -3.91,-1.12 -1.01,-3.02 4.47,-3.02 4.36,0 7.16,1.12 17.11,7.04 52.55,30.97 59.71,36.34 72.57,55.01 4.58,6.6 9.84,13.08 11.74,14.2 4.14,2.57 7.16,2.35 33.77,-3.13 l 19.23,-3.91 92.58,0.45 c 102.87,0.34 96.39,-0.11 114.28,8.16 l 8.16,3.8 -0.56,9.73 c -0.56,10.62 -2.57,16.33 -18.34,51.77 -3.69,8.27 -8.61,20.35 -10.96,26.72 -6.49,17.78 -17.89,33.32 -33.1,45.51 -6.82,5.48 -7.6,6.49 -8.39,11.18 -1.34,9.17 3.02,56.91 6.93,76.48 0.89,4.58 3.58,13.98 5.81,20.69 l 4.14,12.3 0.34,105.67 c 0.22,73.8 0,107.9 -0.89,112.93 -1.57,8.83 -6.15,18.56 -12.86,27.17 -4.25,5.37 -5.59,6.37 -8.5,6.37 -2.91,0 -3.24,-0.34 -2.24,-1.57 z"
           id="path4" /></g><g
         fill="#a687bd"
         id="g7"
         style="display:inline"><path
           d="m 436.2,890.28 c -12.52,-13.42 -15.21,-17.11 -18.67,-24.26 -2.68,-5.48 -2.68,-6.04 -2.68,-41.37 0,-33.66 0.11,-36 2.24,-39.36 1.9,-3.13 2.91,-3.69 6.37,-3.69 5.81,0 17.22,6.04 24.82,12.97 l 6.26,5.81 0.67,29.41 c 0.78,31.64 0.56,30.64 6.15,44.28 5.26,12.75 5.14,15.21 -1.79,21.8 -4.47,4.25 -6.37,5.37 -9.39,5.37 -3.47,0 -4.92,-1.23 -13.98,-10.96 z"
           id="path5" /><path
           d="m 354.12,778.69 c -3.02,-3.02 2.46,-24.94 9.39,-37.57 2.57,-4.47 3.13,-4.81 7.83,-5.14 4.7,-0.34 5.7,0.22 14.54,6.82 5.26,4.03 10.96,8.95 12.75,10.96 4.81,5.7 9.73,17 9.28,21.36 l -0.34,3.69 -26.39,0.34 c -14.42,0.11 -26.61,-0.11 -27.06,-0.45 z"
           id="path6" /><path
           d="m 332.65,734.52 c -4.25,-0.56 -17.33,-2.57 -29.07,-4.47 -27.73,-4.47 -41.04,-5.14 -58.37,-2.8 -7.49,1.01 -15.65,1.79 -18.11,1.79 h -4.58 v -8.16 -8.05 l 8.83,-14.76 c 6.49,-11.07 9.95,-18.56 13.53,-29.07 6.93,-20.46 6.93,-20.46 12.75,-20.46 6.15,0 9.06,2.24 34.77,26.84 21.47,20.57 29.63,27.06 46.29,36.45 15.21,8.61 20.24,13.42 20.24,19.46 v 4.47 l -9.17,-0.11 c -5.14,-0.11 -12.75,-0.67 -17.11,-1.12 z"
           id="path7" /></g><g
         fill="#fa1c2e"
         id="g9"
         style="display:inline"><path
           d="m 882.46,881.11 c -4.36,-2.68 -6.93,-8.05 -7.04,-14.76 -0.22,-9.84 -0.56,-10.18 -11.18,-11.63 -13.53,-2.01 -35.33,-6.93 -40.81,-9.39 -8.5,-3.69 -13.31,-9.28 -20.13,-23.26 -3.47,-7.16 -6.6,-13.87 -7.16,-14.76 -0.67,-1.34 -4.81,-1.79 -23.03,-2.24 -12.75,-0.45 -23.48,-1.23 -25.27,-1.9 -7.04,-3.02 -11.07,-11.74 -8.72,-18.9 2.24,-6.82 6.26,-7.49 15.54,-2.91 6.04,2.91 7.04,3.02 29.74,3.58 15.32,0.45 24.38,1.12 25.94,2.01 1.68,0.89 3.13,3.47 4.36,7.83 3.24,11.63 4.03,14.09 6.82,19.79 4.25,8.39 7.6,11.52 14.2,12.75 3.13,0.67 11.74,2.46 19.12,4.03 7.38,1.57 17.44,3.35 22.36,3.91 14.65,1.79 17.11,5.37 17.22,25.27 0.11,9.95 -0.22,11.85 -2.8,17 -1.57,3.24 -3.47,5.81 -4.14,5.81 -0.78,0 -3.02,-1.01 -5.03,-2.24 z"
           id="path8" /><path
           d="m 339.7,530.35 c -2.46,-2.8 -5.93,-10.06 -7.72,-15.99 -1.12,-3.58 -3.13,-6.49 -7.16,-10.06 -13.42,-12.08 -19.23,-18.67 -23.37,-26.84 -6.82,-13.08 -8.05,-14.42 -17.11,-18.56 l -8.27,-3.8 -4.36,-9.5 c -2.46,-5.37 -6.49,-11.74 -9.28,-14.76 -7.83,-8.5 -9.06,-12.08 -5.81,-18.11 2.35,-4.7 7.27,-6.37 11.63,-4.14 6.37,3.35 11.07,8.5 16.44,18 4.36,7.72 6.6,10.4 12.3,14.65 9.95,7.27 14.2,12.3 20.02,23.82 5.81,11.63 9.73,16.55 18.79,23.26 15.21,11.07 16.44,12.97 16.44,24.38 0,9.28 -2.24,14.65 -7.38,17.56 -3.24,1.9 -3.58,1.9 -5.14,0.11 z"
           id="path9" /></g><g
         fill="#000001"
         id="g14"
         style="display:inline"><path
           d="m 524.73019,1144.9385 -0.44982,-26.3869 -0.34065,-26.6096 -4.80833,-13.9839 c -5.81,-17 -9.28043,-23.3663 -26.50043,-48.8563 -13.75,-20.46 -26.49942,-35.00215 -34.09942,-38.91215 -4.36,-2.24 -8.04969,-2.46156 -25.15969,-1.23156 -13.98,1.01 -22.36397,3.02263 -26.61397,6.26263 -1.57,1.23 -5.36719,6.36728 -8.26719,11.40728 -3.69,6.37 -9.73043,13.6441 -19.46043,23.7141 -7.72,8.05 -14.8693,16.2066 -15.8793,18.1066 -3.47,6.82 -7.16004,17.8899 -10.18004,30.2999 -1.79,7.38 -4.92128,16.7703 -7.72128,22.3603 l -4.69916,9.8394 -0.34064,17.1108 -0.39742,14.9928 c 3.67355,0.3653 7.36654,0.6787 11.07096,0.9389 l 0.68566,-7.599 c 0.33,-4.7 0.67255,-10.5115 0.67255,-12.8615 0,-2.8 2.12652,-9.8389 5.47652,-18.2289 3.13,-7.49 7.38104,-20.6819 9.62104,-29.1819 5.93,-22.7 7.04167,-24.8181 24.04167,-42.5981 8.16,-8.5 16.6606,-17.8895 19.0106,-21.0195 7.49,-10.06 7.37994,-10.0628 23.25994,-10.4028 8.17,-0.23 15.87887,0.1118 18.22887,0.7818 5.93,1.79 11.73993,7.939 23.25993,24.819 5.59,8.27 13.41922,19.3399 17.32922,24.7099 6.26,8.5 7.8317,11.7386 12.4117,25.7186 6.03,18.01 6.47687,23.26 4.57687,52.11 l -1.00447,14.7001 z"
           id="path21" /><path
           d="m 528.01873,1144.9385 -0.44983,-28.1207 -0.34064,-28.2866 -4.80834,-13.9795 c -5.81,-16.99 -9.28042,-23.3707 -26.50042,-48.8607 -13.75,-20.35 -26.49943,-34.99134 -34.09943,-39.02134 -4.47,-2.35 -12.53214,-2.57157 -31.87214,-1.23157 -14.09,1.11 -22.3596,3.13181 -26.6096,6.37181 -1.56,1.23 -5.35719,6.3816 -8.26719,11.4116 -3.69,6.38 -9.73043,13.6498 -19.46043,23.7098 -7.72,8.05 -14.8693,16.2065 -15.8793,18.1065 -3.47,6.82 -7.16004,17.8943 -10.18004,30.3043 -1.79,7.38 -4.92128,16.766 -7.72128,22.356 l -4.69916,9.8437 -0.34064,18.7879 h 0.0218 l -0.39742,16.3684 c 1.13137,0.1228 2.2633,0.241 3.39771,0.3538 l 0.39742,-14.9928 0.34064,-17.1108 4.69916,-9.8394 c 2.8,-5.59 5.93128,-14.9803 7.72128,-22.3603 3.02,-12.41 6.71004,-23.4799 10.18004,-30.2999 1.01,-1.9 8.1593,-10.0566 15.8793,-18.1066 9.73,-10.07 15.77043,-17.3441 19.46043,-23.7141 2.9,-5.04 6.69719,-10.17728 8.26719,-11.40728 4.25,-3.24 12.63397,-5.25263 26.61397,-6.26263 17.11,-1.23 20.79969,-1.00844 25.15969,1.23156 7.6,3.91 20.34942,18.45215 34.09942,38.91215 17.22,25.49 20.69043,31.8563 26.50043,48.8563 l 4.80833,13.9839 0.34065,26.6096 0.44982,26.3869 z"
           id="path20" /><path
           d="m 528.01873,1144.9385 h -19.56525 l -0.004,0.061 h 9.73022 9.8394 z"
           id="path19" /><path
           d="m 1020.255,887.31053 c -10.235,11.05151 -27.31939,23.26298 -62.88395,45.55907 -46.41,29.07 -49.3132,30.64238 -65.7532,37.01238 -8.61,3.25 -31.63946,13.97894 -51.31946,23.81894 -24.15,12.07998 -39.47014,19.11938 -47.07014,21.46938 -6.15,1.91 -20.23958,6.49 -31.19958,10.18 l -20.01944,6.5989 -3.01776,14.8705 c -4.25,21.91 -6.93089,31.3102 -12.52089,45.6202 -2.8,7.05 -6.9312,19.1211 -9.1712,26.8411 -2.23,7.72 -5.02826,16.217 -6.25826,18.897 -1.11,2.68 -2.12248,5.2528 -2.12248,5.8128 v 0.031 c 0,0 -2.2e-4,0.01 0,0.01 0.055,0.3354 1.8385,0.637 4.51573,0.8167 l 2.04387,-5.6075 c 1.23,-3.25 3.8028,-11.4089 5.8128,-18.2289 1.9,-6.71 5.80783,-18.1197 8.60783,-25.1597 5.59,-14.31 8.16088,-23.7002 12.52088,-45.6202 l 3.02214,-14.8705 20.01943,-6.5989 c 10.96,-3.69 25.04958,-8.28 31.19958,-10.18 7.6,-2.35 22.92014,-9.3894 47.07014,-21.46937 19.68,-9.84 42.82738,-20.58331 51.43738,-23.82331 8.61,-3.36 18.67028,-7.94004 22.36028,-10.18004 24.93,-15.2 70.5527,-43.93815 76.5927,-48.18815 4.03,-2.79 11.6265,-8.72071 17.1065,-12.97071 8.61,-6.94 9.7302,-8.1716 9.7302,-11.4116 0,-1.46879 -0.1223,-2.42215 -0.7031,-3.22739 z"
           id="path30" /><path
           d="m 8.4697478,846.81309 c 0.4110242,1.92752 0.8351084,3.84842 1.2752347,5.76476 l 0.065509,-0.0699 c 5.3699995,-5.59 14.3079745,-13.63822 19.7879745,-17.88822 19.68,-14.87 43.393483,-41.15001 52.223483,-57.70001 2.35,-4.47 2.568584,-6.37 2.908584,-28.85 0.45,-27.17 -0.671807,-35.67078 -6.371807,-47.41078 -1.9,-3.69 -5.140639,-12.8578 -7.380639,-20.2378 -3.47,-11.4 -5.476169,-15.75936 -13.416169,-28.50936 -9.39,-15.2 -14.873161,-26.50188 -19.683161,-40.81188 -2.57,-7.61 -2.677119,-8.8383 -2.677119,-45.2883 0,-34.89 0.217938,-38.1316 2.567938,-47.3016 2.91,-11.51 5.3688,-16.65961 12.6388,-26.60961 5.93,-8.06 19.011245,-19.13257 26.391245,-22.48257 15.77,-7.05 38.361779,-8.94989 68.661779,-6.03989 10.28,1.01 21.13004,1.79057 24.26004,1.79057 5.14,0 5.58743,0.22213 6.36743,3.02213 0.34,1.67 0.34082,15.6473 -0.10918,31.0773 -0.67,26.73 -0.66943,28.40121 1.79057,38.02121 6.04,23.93 16.54834,44.83957 33.65834,67.08957 6.15,8.05 15.42971,18.67185 20.56971,23.59185 5.25,5.03 9.50312,9.72758 9.50312,10.50758 0,4.14 -10.51185,31.64228 -16.55185,43.05228 -14.31,27.28 -21.80028,43.4917 -22.36028,48.3017 -0.67,6.15 1.68146,9.95723 7.27146,11.40723 2.57,0.78 18.10875,1.23157 38.34875,1.23157 25.39,0 40.15083,0.56039 57.59083,2.24039 12.85,1.23 26.04754,2.2404 29.17754,2.2404 9.62,0 9.51072,-0.12068 5.93072,11.28932 -5.14,15.98 -3.90705,29.73886 2.91295,32.30886 1.68,0.67 14.08762,1.11801 27.72762,1.11801 13.65,0 25.95008,0.33255 27.40008,0.67255 l 2.45876,0.66819 v 34.33089 c 0,19.79 0.45238,35.88876 1.12238,38.34876 1.34,4.7 7.60177,13.4205 18.00177,25.0505 3.92,4.47 9.6188,10.95064 12.6388,14.42064 7.16,8.27 11.06904,10.62113 17.77904,10.62113 5.93,0 8.38791,-0.99843 14.19791,-5.80843 2.12,-1.68 4.6928,-3.13132 5.8128,-3.13132 5.03,0 27.27981,15.86812 43.37981,30.96812 12.41,11.63 24.5989,20.58313 42.4889,31.31313 13.87,8.38 21.69182,11.95907 28.18182,13.18907 3.8,0.67 4.23843,0.44851 5.80843,-2.68149 2.35,-4.48 2.24082,-9.40078 -0.10918,-11.52078 -1.12,-1.01 -5.03138,-3.35735 -8.72138,-5.36735 -22.37,-11.97 -45.40033,-28.2921 -61.39033,-43.5021 -6.94,-6.48 -17.34075,-15.08978 -23.15075,-19.11978 l -10.50758,-7.27146 -0.89092,-6.14908 c -0.56,-3.35 -1.22993,-7.38056 -1.44993,-8.83056 -0.33,-1.46 -3.35163,-5.25947 -6.82163,-8.38947 -9.62,-8.84 -9.73004,-9.27834 -10.18004,-33.65834 l -0.33628,-21.251 4.0266,-15.64783 c 2.12,-8.61 4.69362,-16.32359 5.70362,-17.33359 1.34,-1.35 4.91797,-1.67784 19.78797,-1.56784 l 18.11096,0.10919 24.48712,6.25825 c 21.69,5.59 26.3899,7.1621 41.9299,14.6521 20.91,10.07 27.73366,12.85788 44.73366,18.78788 13.98,4.81 45.84994,20.57224 52.10994,25.83224 2.12,1.79 6.15056,6.59823 8.83056,10.84823 2.8,4.25 6.03709,8.16056 7.26709,8.83056 8.05,4.36 14.30932,-4.24947 11.28932,-15.42947 -1.56,-6.04 -8.1584,-13.30978 -17.4384,-19.11978 -12.52,-7.93 -39.58092,-20.79035 -58.59092,-27.95035 -10.17,-3.8 -27.9495,-11.62922 -39.6895,-17.32922 -19.12,-9.51 -22.80982,-10.84954 -36.33982,-13.97954 -8.27,-1.9 -18.89829,-4.46926 -23.47829,-5.69926 -7.27,-2.01 -11.63288,-2.34957 -33.21288,-2.34957 l -24.93696,-0.11355 -4.25369,2.91295 c -3.46,2.46 -10.16808,9.94783 -13.74808,15.64783 -0.45,0.56 -3.35808,-0.88968 -6.70808,-3.34968 -3.36,-2.34 -8.49997,-5.809 -11.62997,-7.599 -9.28,-5.26 -13.86291,-9.61944 -21.58291,-20.01944 l -7.38064,-9.95294 -29.8501,-19.67879 c -16.43,-10.85 -34.21032,-22.13887 -39.58032,-25.26887 -13.19,-7.6 -23.14798,-16.10089 -48.63798,-41.37089 -12.75,-12.52 -25.82876,-24.38099 -31.30876,-28.29099 -15.77,-11.18 -22.14188,-17.66908 -33.77188,-34.99908 -11.96,-17.67 -20.12886,-33.88019 -25.26886,-50.21019 -5.81,-18.22 -6.15007,-21.90879 -5.59007,-55.56879 0.45,-22.69 0.22908,-32.64974 -0.89092,-37.78974 -1.01,-4.92 -1.46139,-21.58167 -1.68139,-59.93167 -0.22,-50.65 -0.1096,-53.45025 2.2404,-62.84025 1.23,-5.37 3.57024,-12.53011 5.14024,-15.77011 7.27,-15.43 24.94334,-33.20798 41.04334,-41.59798 5.7,-2.9 14.8678,-8.2727 20.2378,-11.8527 11.97,-8.05 16.77125,-9.8394 26.39125,-9.8394 10.18,0 34.77848,-2.78669 44.83848,-5.02669 4.59,-1.12 10.40152,-2.35295 12.86152,-2.91295 2.46,-0.44 14.54108,-0.89092 26.84108,-0.89092 l 22.35591,-0.10918 5.59007,3.13131 c 3.13,1.78 9.40391,5.47156 13.98391,8.27156 16.54,10.06 31.9695,18.67028 39.6895,22.36028 l 7.83046,3.68595 h 22.35592 22.36028 l 8.16237,-3.68595 8.15801,-3.69032 23.70976,1.11801 c 18.79,0.78 27.06096,1.78851 39.92096,4.35851 8.95,1.9 21.25008,3.91124 27.40008,4.58124 22.14,2.57 32.6517,5.14251 77.1517,19.34251 13.53,4.25 26.60918,8.82858 28.95918,9.94858 2.46,1.11 5.70146,2.11811 7.27146,2.11811 0.41826,0 1.1993,0.22467 2.24477,0.62452 l 0.40178,-3.38461 -5.80843,-2.56794 c -3.13,-1.35 -16.65802,-5.93004 -29.96802,-10.18004 -44.06,-14.09 -54.78979,-16.76897 -76.81979,-19.22897 -6.15,-0.67 -18.45008,-2.68124 -27.40008,-4.58124 -13.53,-2.79 -20.57227,-3.46205 -43.05227,-4.47205 l -26.95025,-1.2272 -8.26719,3.7995 -8.39384,3.7995 h -19.00624 -19.01061 l -7.83046,-3.69032 c -7.71,-3.57 -23.1395,-12.30028 -39.6895,-22.36028 -4.59,-2.79 -10.84954,-6.48155 -13.97954,-8.27155 l -5.59007,-3.12695 -25.72306,0.10918 c -14.09,0 -27.73075,0.44092 -30.19075,0.89092 -2.46,0.56 -8.27716,1.78858 -12.85716,2.90858 -10.07,2.23 -34.66284,5.03106 -44.84284,5.03106 -9.62,0 -14.42688,1.7894 -26.38688,9.8394 -5.37,3.58 -14.54217,8.93833 -20.24217,11.84833 -16.1,8.39 -33.76897,26.17235 -41.03897,41.60235 -1.57,3.25 -3.91816,10.40011 -5.25816,15.77011 -2.34,9.51 -2.34248,11.73784 -2.12248,66.30784 0.11,34.78 0.66992,58.36951 1.44992,61.49951 0.67,3.02 1.11092,18.23376 0.89092,38.69376 -0.12,36.11 0.11181,39.12755 6.37181,58.02755 4.81,15.1 13.29985,31.6488 24.70985,48.5288 11.63,17.33 17.99752,23.82345 33.76752,35.00345 5.48,3.91 18.55876,15.76662 31.30876,28.28662 25.49,25.27 35.45234,33.77089 48.64234,41.37089 5.36,3.13 23.14032,14.41887 39.58032,25.26887 l 29.8501,19.68316 7.38064,9.94857 c 7.71,10.4 12.29855,14.75944 21.57855,20.01944 3.14,1.79 8.1716,5.13982 11.4116,7.48982 8.72,6.37 11.84659,5.93125 18.10659,-2.45875 2.8,-3.69 6.93121,-8.05104 9.17121,-9.62104 4.25,-2.91 4.36223,-2.90858 25.83223,-2.90858 18.23,0.11 22.92802,0.44957 29.96802,2.34957 4.58,1.23 15.20829,3.79926 23.47829,5.69926 13.53,3.13 17.21983,4.47954 36.33983,13.97954 11.74,5.7 29.51386,13.52922 39.69386,17.32922 18.45,6.93 46.28755,20.1328 58.02755,27.6228 14.99,9.39 21.47267,19.78961 16.44267,26.60961 -2.24,3.13 -4.59004,1.44772 -10.18004,-7.16228 -2.8,-4.25 -6.83285,-9.16741 -8.95285,-10.95741 -6.27,-5.26 -38.12993,-21.02224 -52.10993,-25.83224 -17,-5.93 -23.8193,-8.72787 -44.7293,-18.78787 -15.54,-7.49 -20.23989,-9.17128 -41.92989,-14.76128 l -24.4915,-6.25826 h -21.46936 c -17.78,-0.11 -21.81075,0.22784 -23.15075,1.56784 -1,1 -3.57925,8.71922 -5.69925,17.32922 l -4.03097,15.65219 0.34065,24.60068 c 0.45,28.18 0.34004,27.94801 10.18004,37.00801 3.47,3.13 6.48163,6.93947 6.82163,8.38947 0.22,1.45 0.88992,5.48057 1.44992,8.83057 l 0.89092,6.14907 10.50759,7.27146 c 5.82,4.02 16.22075,12.62979 23.15075,19.11979 15.99,15.21 39.03032,31.5421 61.39032,43.5021 9.62,5.15 10.73039,6.37667 9.28039,9.61667 -0.67,1.45 -1.68039,2.68148 -2.24039,2.68148 -4.48,0 -31.09061,-15.08861 -47.86061,-27.16861 -5.26,-3.69 -14.31862,-11.29021 -20.12862,-16.77021 -11.96,-11.18 -22.70107,-19.57125 -33.88107,-26.39125 -10.17,-6.15 -15.86846,-6.36818 -23.02846,-0.66818 -11.18,8.83 -12.41238,8.15701 -37.01238,-20.13299 -12.08,-13.87 -16.43823,-20.0205 -17.88823,-25.0505 -0.67,-2.24 -1.12238,-19.11958 -1.12238,-38.23958 v -34.32652 l -2.45876,-0.67256 c -1.46,-0.33 -13.76007,-0.66818 -27.40007,-0.66818 -13.64,0 -26.04763,-0.45238 -27.72763,-1.12238 -3.24,-1.23 -6.15344,-7.03816 -6.15344,-12.29816 0,-1.79 1.55968,-8.05245 3.34968,-13.75245 5.25,-16.44 4.8101,-17.55631 -6.0399,-17.55631 -3.13,0 -16.31755,-1.01039 -29.17755,-2.24039 -17.45,-1.68 -32.21082,-2.2404 -57.59082,-2.2404 -36.23,0 -41.36947,-0.56106 -44.27947,-5.03106 -1.56,-2.46 -1.45042,-3.24188 2.34958,-11.96188 2.13,-5.15 8.28053,-17.2167 13.42053,-26.8367 5.25,-9.61 10.50833,-20.24267 11.84833,-23.48267 5.37,-13.53 9.95294,-29.06687 9.95294,-33.42687 0,-4.36 -0.55311,-5.14244 -9.50311,-13.75244 -5.14,-4.92 -14.41972,-15.53748 -20.56972,-23.58748 -17.11,-22.25 -27.72833,-43.27039 -33.65833,-66.98039 -2.35,-9.39 -2.46139,-11.18238 -1.68139,-37.01238 0.45,-14.99 0.55918,-28.95958 0.10918,-31.19958 -0.79,-4.03 -0.78972,-4.03097 -6.48972,-4.03097 -3.13,0 -13.97003,-0.78057 -24.26003,-1.79057 -33.09,-3.24 -59.256768,-1.1201 -75.356768,6.0399 -7.38,3.36 -20.461245,14.43256 -26.391245,22.48256 -7.27,9.95 -9.732348,15.08961 -12.752348,26.60961 -2.24,9.28 -2.458757,12.19128 -2.458757,50.65128 0,40.03 0.0015,40.91797 2.681487,48.63797 4.81,14.31 10.288794,25.60188 19.678794,40.81188 7.94,12.74 9.950535,17.09936 13.420535,28.50936 2.24,7.38 5.48064,16.5478 7.38064,20.2378 5.48,11.41 6.817439,20.58111 6.367439,44.06111 -0.34,18.89 -0.558584,21.13159 -2.908584,25.49159 -8.95,16.99 -32.319685,42.59911 -54.009685,59.25911 -5.398483,4.09885 -11.96282,9.90759 -16.0103098,13.99265 z"
           id="path28" /><path
           d="m 730.07356,1144.9385 1.20536,-4.6074 c 5.03,-19.23 7.71088,-27.9616 12.52088,-41.7116 3.02,-8.61 7.04057,-22.1407 8.83057,-30.1907 5.26,-23.26 5.03021,-22.7005 9.73021,-25.0505 2.23,-1.12 10.95897,-4.2473 19.22897,-6.8173 26.5,-8.27 33.65897,-11.0699 48.07897,-18.6699 26.16,-13.97 34.10142,-17.6624 54.79142,-25.38244 22.92,-8.61 33.10036,-13.41912 49.76036,-23.36912 35.45,-21.25 84.8711,-54.00776 91.5811,-60.71776 5.37,-5.36 23.0387,-34.43263 25.7187,-42.15263 1.57,-4.81 1.7905,-16.55086 1.7905,-110.70086 0,-64.3 -0.4524,-108.34961 -1.1224,-113.15961 -0.67,-4.25 -2.6776,-13.07961 -4.4676,-19.56961 -7.83,-27.84 -13.1892,-62.27915 -11.7392,-76.47915 0.78,-9.17 1.5575,-10.50837 11.9575,-22.02837 13.86,-15.32 22.9222,-28.51369 27.2822,-40.14369 2.24,-5.82 9.0575,-22.3661 15.0975,-36.6761 18.78,-44.28 22.361,-57.70377 18.111,-67.54377 -2.8,-6.15 -6.271,-8.3789 -21.251,-13.6389 -22.03,-7.6 -18.567,-7.38064 -118.52696,-7.38064 -87.1,0 -90.68064,0.10958 -100.97064,2.34958 -13.64,2.91 -29.96042,4.92096 -33.54042,4.03096 -1.79,-0.45 -5.59196,-4.35823 -10.51196,-10.84823 -10.4,-13.87 -21.02039,-23.03933 -38.13039,-33.09933 -7.94,-4.7 -20.36008,-12.19103 -27.40008,-16.66103 -18.45,-11.63 -23.47837,-13.87092 -50.87837,-22.70092 -50.65,-16.21 -69.65926,-21.24003 -92.24926,-24.26003 -7.71,-1 -21.24074,-3.01124 -30.19074,-4.58124 -9.95,-1.79 -23.03107,-3.01759 -33.88107,-3.46759 -15.55,-0.56 -18.22663,-1.01213 -21.24663,-3.02213 -5.26,-3.47 -24.60214,-29.62709 -31.87214,-43.15709 -4.03,-7.61 -8.84135,-19.12114 -13.31135,-32.43114 -3.8,-11.41 -11.28666,-30.75228 -16.65666,-43.05228 -5.26,-12.3 -11.86292,-28.068257 -14.54292,-35.108257 -7.38,-19.57 -13.52812,-28.181885 -23.92812,-33.771885 -4.7,-2.46 -18.68232,-1.8968 -24.38232,1.0132 -9.39,4.92 -27.8389,18.109108 -42.4889,30.409108 -18.67,15.650004 -24.9394,21.908754 -38.6894,38.348754 -6.04,7.16 -16.66975,18.55968 -23.70975,25.15968 -29.63,27.73 -36.01065,38.90926 -36.23065,63.39926 0,3.13 -0.66992,6.7132 -1.44992,8.0532 -2.8,5.14 -8.84128,9.38729 -43.61128,31.07729 -9.5,6.04 -18.78018,15.09117 -28.40018,27.84117 -9.62,12.75 -12.74748,19.11834 -16.54748,33.65834 -4.14,15.65 -5.03106,29.52284 -5.03106,80.73284 v 47.62914 l -14.87046,-1.00883 c -8.05,-0.55 -24.59819,-1.00092 -36.55819,-0.89092 -36.789998,0.11 -50.649151,4.68847 -69.439151,23.02847 -18.11,17.66 -25.043725,29.07096 -28.513725,46.96096 -2.35,12.08 -3.577021,76.70951 -1.677021,90.34951 1.9,14.54 7.050432,27.85018 19.460432,50.21018 7.83,14.31 12.519467,24.48933 15.429467,33.09933 2.24,6.82 5.808827,16.43936 8.048827,21.46936 5.03,11.4 6.371807,18.78362 6.371807,34.55362 0,17 -1.343195,22.25033 -8.053195,32.54033 -11.74,18.01 -25.37922,31.64986 -46.17922,46.51986 -2.8885187,2.0478 -5.6038138,4.01928 -7.7169171,5.60754 0.9819574,6.00982 2.1070596,11.97461 3.3671439,17.88386 4.0474902,-4.08506 10.6118272,-9.8938 16.0103102,-13.99265 21.69,-16.66 45.059685,-42.26911 54.009685,-59.25911 2.35,-4.36 2.568584,-6.60159 2.908584,-25.49159 0.45,-23.48 -0.887439,-32.65111 -6.367439,-44.06111 -1.9,-3.69 -5.14064,-12.8578 -7.38064,-20.2378 -3.47,-11.41 -5.480535,-15.76936 -13.420535,-28.50936 -9.39,-15.21 -14.868794,-26.50188 -19.678794,-40.81188 -2.679987,-7.72 -2.681487,-8.60797 -2.681487,-48.63797 0,-38.46 0.218757,-41.37128 2.458757,-50.65128 3.02,-11.52 5.482348,-16.65961 12.752348,-26.60961 5.93,-8.05 19.011245,-19.12256 26.391245,-22.48256 16.1,-7.16 42.266768,-9.2799 75.356768,-6.0399 10.29,1.01 21.13003,1.79057 24.26003,1.79057 5.7,0 5.69972,9.7e-4 6.48972,4.03097 0.45,2.24 0.34082,16.20958 -0.10918,31.19958 -0.78,25.83 -0.66861,27.62238 1.68139,37.01238 5.93,23.71 16.54833,44.73039 33.65833,66.98039 6.15,8.05 15.42972,18.66748 20.56972,23.58748 8.95,8.61 9.50311,9.39244 9.50311,13.75244 0,4.36 -4.58294,19.89687 -9.95294,33.42687 -1.34,3.24 -6.59833,13.87267 -11.84833,23.48267 -5.14,9.62 -11.29053,21.6867 -13.42053,26.8367 -3.8,8.72 -3.90958,9.50188 -2.34958,11.96188 2.91,4.47 8.04947,5.03106 44.27947,5.03106 25.38,0 40.14082,0.5604 57.59082,2.2404 12.86,1.23 26.04755,2.24039 29.17755,2.24039 10.85,0 11.2899,1.11631 6.0399,17.55631 -1.79,5.7 -3.34968,11.96245 -3.34968,13.75245 0,5.26 2.91344,11.06816 6.15344,12.29816 1.68,0.67 14.08763,1.12238 27.72763,1.12238 13.64,0 25.94007,0.33818 27.40007,0.66818 l 2.45876,0.67256 v 34.32652 c 0,19.12 0.45238,35.99958 1.12238,38.23958 1.45,5.03 5.80823,11.1805 17.88823,25.0505 24.6,28.29 25.83238,28.96299 37.01238,20.13299 7.16,-5.7 12.85846,-5.48182 23.02846,0.66818 11.18,6.82 21.92107,15.21125 33.88107,26.39125 5.81,5.48 14.86862,13.08021 20.12862,16.77021 16.77,12.08 43.38061,27.16861 47.86061,27.16861 0.56,0 1.57039,-1.23148 2.24039,-2.68148 1.45,-3.24 0.33961,-4.46667 -9.28039,-9.61667 -22.36,-11.96 -45.40032,-28.2921 -61.39032,-43.5021 -6.93,-6.49 -17.33075,-15.09979 -23.15075,-19.11979 l -10.50759,-7.27146 -0.89092,-6.14907 c -0.56,-3.35 -1.22992,-7.38057 -1.44992,-8.83057 -0.34,-1.45 -3.35163,-5.25947 -6.82163,-8.38947 -9.84,-9.06 -9.73004,-8.82801 -10.18004,-37.00801 l -0.34065,-24.60068 4.03097,-15.65219 c 2.12,-8.61 4.69925,-16.32922 5.69925,-17.32922 1.34,-1.34 5.37075,-1.67784 23.15075,-1.56784 h 21.46936 l 24.4915,6.25826 c 21.69,5.59 26.38989,7.27128 41.92989,14.76128 20.91,10.06 27.7293,12.85787 44.7293,18.78787 13.98,4.81 45.83993,20.57224 52.10993,25.83224 2.12,1.79 6.15285,6.70741 8.95285,10.95741 5.59,8.61 7.94004,10.29228 10.18004,7.16228 5.03,-6.82 -1.45267,-17.21961 -16.44267,-26.60961 -11.74,-7.49 -39.57755,-20.6928 -58.02755,-27.6228 -10.18,-3.8 -27.95386,-11.62922 -39.69386,-17.32922 -19.12,-9.5 -22.80983,-10.84954 -36.33983,-13.97954 -8.27,-1.9 -18.89829,-4.46926 -23.47829,-5.69926 -7.04,-1.9 -11.73802,-2.23957 -29.96802,-2.34957 -21.47,0 -21.58223,-10e-4 -25.83223,2.90858 -2.24,1.57 -6.37121,5.93104 -9.17121,9.62104 -6.26,8.39 -9.38659,8.82875 -18.10659,2.45875 -3.24,-2.35 -8.2716,-5.69982 -11.4116,-7.48982 -9.28,-5.26 -13.86855,-9.61944 -21.57855,-20.01944 l -7.38064,-9.94857 -29.8501,-19.68316 c -16.44,-10.85 -34.22032,-22.13887 -39.58032,-25.26887 -13.19,-7.6 -23.15234,-16.10089 -48.64234,-41.37089 -12.75,-12.52 -25.82876,-24.37662 -31.30876,-28.28662 -15.77,-11.18 -22.13752,-17.67345 -33.76752,-35.00345 -11.41,-16.88 -19.89985,-33.4288 -24.70985,-48.5288 -6.26,-18.9 -6.49181,-21.91755 -6.37181,-58.02755 0.22,-20.46 -0.22092,-35.67376 -0.89092,-38.69376 -0.78,-3.13 -1.33992,-26.71951 -1.44992,-61.49951 -0.22,-54.57 -0.21752,-56.79784 2.12248,-66.30784 1.34,-5.37 3.68816,-12.52011 5.25816,-15.77011 7.27,-15.43 24.93897,-33.21235 41.03897,-41.60235 5.7,-2.91 14.87217,-8.26833 20.24217,-11.84833 11.96,-8.05 16.76688,-9.8394 26.38688,-9.8394 10.18,0 34.77284,-2.80106 44.84284,-5.03106 4.58,-1.12 10.39716,-2.34858 12.85716,-2.90858 2.46,-0.45 16.10075,-0.89092 30.19075,-0.89092 l 25.72306,-0.10918 5.59007,3.12695 c 3.13,1.79 9.38954,5.48155 13.97954,8.27155 16.55,10.06 31.9795,18.79028 39.6895,22.36028 l 7.83046,3.69032 h 19.01061 19.00624 l 8.39384,-3.7995 8.26719,-3.7995 26.95025,1.2272 c 22.48,1.01 29.52227,1.68205 43.05227,4.47205 8.95,1.9 21.25008,3.91124 27.40008,4.58124 22.03,2.46 32.75979,5.13897 76.81979,19.22897 13.31,4.25 26.83802,8.83004 29.96802,10.18004 l 5.80843,2.56794 -0.40178,3.38461 c 2.87886,1.10106 7.75112,3.54713 12.51214,6.41548 52.55,30.97 59.71047,36.33978 72.57047,55.00978 4.58,6.6 9.83915,13.08228 11.73915,14.20228 4.59,3.02 15.65997,2.11786 40.47997,-3.02214 l 19.23333,-4.02659 89.22713,0.44982 c 99.17999,0.33 93.02919,-0.11199 110.91919,8.15801 l 8.2716,3.7995 -0.6682,6.37181 c -0.67,6.71 -5.5924,19.78961 -18.3424,48.41961 -3.69,8.27 -8.6074,20.34879 -10.9574,26.71879 -2.46,6.82 -6.713,15.20862 -9.953,20.12862 -5.71,8.5 -17.3277,21.03263 -26.2777,28.07263 -4.81,3.8 -4.8109,4.01751 -5.4809,11.95751 -0.89,14.09 3.1323,59.83275 7.1623,79.73275 0.89,4.59 3.5684,13.97762 5.8084,20.68762 l 4.1402,12.30253 v 106.2288 c 0,121.1 0.6714,111.82171 -9.9486,127.81171 -1.9606,2.91899 -4.1861,5.7525 -6.8871,8.66898 0.5808,0.80524 0.7031,1.7586 0.7031,3.22739 0,3.24 -1.1202,4.4716 -9.7302,11.4116 -5.48,4.25 -13.0765,10.18071 -17.1065,12.97071 -6.04,4.25 -51.6627,32.98815 -76.5927,48.18815 -3.69,2.24 -13.75028,6.82004 -22.36028,10.18004 -8.61,3.24 -31.75738,13.98331 -51.43738,23.82331 -24.15,12.07997 -39.47014,19.11937 -47.07014,21.46937 -6.15,1.9 -20.23958,6.49 -31.19958,10.18 l -20.01943,6.5989 -3.02214,14.8705 c -4.36,21.92 -6.93088,31.3102 -12.52088,45.6202 -2.8,7.04 -6.70783,18.4497 -8.60783,25.1597 -2.01,6.82 -4.5828,14.9789 -5.8128,18.2289 l -2.04387,5.6075 c 0.5333,0.036 1.10087,0.066 1.69885,0.092 z M 257.62966,651.88123 c 2.46,0 10.9623,7.2667 31.4223,26.8367 21.47,20.57 29.6284,27.06337 46.2884,36.45337 10.96,6.15 20.23781,13.52766 20.23781,16.09766 h 0.0131 c 0,2.35 -14.42334,1.01313 -48.08334,-4.57687 -26.73,-4.37 -47.29965,-5.26377 -65.63965,-2.80377 -7.49,1.01 -14.08691,1.79057 -14.75691,1.79057 -0.67,0 -1.23157,-2.12834 -1.23157,-4.80834 0,-3.92 1.56057,-7.27043 8.83057,-19.46043 6.49,-11.07 9.94971,-18.55836 13.52971,-29.06836 5.7,-16.77 7.37958,-20.46053 9.38958,-20.46053 z m 113.77102,87.43219 c 2.23195,-0.12435 19.44501,12.56887 23.88009,17.78778 3.69,4.36 9.72056,16.5474 8.83056,17.9974 v 0.0131 c -0.33,0.44 -10.84266,0.88655 -23.48266,0.88655 -20.46,0 -22.91748,-0.21975 -23.58748,-1.89975 -0.9,-2.24 5.35875,-21.13 9.49875,-28.85 1.68,-3.02 3.79834,-5.70635 4.80834,-5.92635 0.0157,-0.003 0.0348,-0.008 0.0524,-0.009 z m 52.51609,46.05257 c 0.39672,-0.005 0.82951,0.0858 1.33201,0.2533 5.03,1.46 17.10936,9.29036 21.46936,13.87036 l 4.47206,4.58124 0.66819,29.29983 c 0.56,31.31 0.44982,30.19078 7.48982,47.41078 l 2.35394,5.80843 -2.80377,3.34968 v 0.009 c -1.57,1.9 -4.24989,4.47362 -6.03989,5.70362 l -3.12695,2.23603 -10.18004,-10.95741 c -12.52,-13.41 -15.19996,-17.10004 -18.66996,-24.26004 -2.57,-5.48 -2.68149,-6.15121 -2.68149,-38.02121 0,-30.53 0.1204,-32.65146 2.2404,-36.12146 1.425,-2.265 2.28617,-3.14547 3.47632,-3.16188 z"
           id="path16" /><path
           d="m 730.07356,1144.9385 h -14.94034 c 1.34635,0.059 2.84017,0.092 4.40655,0.092 h 10.51195 z"
           id="path15" /><path
           d="m 581.67,725.58 c -10.73,-2.12 -21.69,-8.61 -34.55,-20.46 -12.64,-11.74 -12.97,-12.75 -13.53,-44.06 l -0.56,-26.17 -2.91,0.78 c -1.57,0.45 -21.69,1.12 -44.61,1.34 l -41.6,0.45 -5.93,-2.68 c -6.71,-3.13 -18.56,-12.08 -33.1,-24.94 -5.7,-5.03 -13.53,-10.96 -17.56,-13.31 l -7.27,-4.25 0.67,-5.7 c 0.45,-3.13 1.01,-6.04 1.34,-6.49 0.22,-0.56 4.36,-0.89 9.06,-0.89 10.4,0 9.95,-0.22 27.28,16.33 7.27,6.93 16.88,14.87 21.8,17.89 l 8.72,5.48 33.99,0.34 33.99,0.34 7.27,-3.69 c 3.91,-2.01 7.38,-4.25 7.72,-4.92 0.22,-0.67 -0.67,-4.92 -1.9,-9.5 -3.02,-10.29 -4.25,-34.22 -2.35,-43.72 1.57,-7.27 5.14,-11.18 12.19,-13.19 5.81,-1.57 21.02,-1.45 27.62,0.34 7.16,1.9 20.02,9.39 26.17,15.32 8.05,7.83 9.06,11.18 9.06,32.43 0,22.36 -0.56,23.59 -11.52,29.07 -6.37,3.13 -8.72,3.58 -18.9,4.03 -6.26,0.34 -13.19,0.78 -15.1,1.12 l -3.69,0.56 v 26.84 c 0,22.81 0.34,27.51 1.9,30.86 2.01,4.36 10.85,11.74 19.79,16.77 l 5.7,3.13 27.95,0.34 c 31.31,0.34 30.75,0.22 30.75,8.39 0,5.37 -4.25,10.06 -10.73,11.85 -5.03,1.45 -40.03,1.45 -47.19,0 z"
           id="path12" /><path
           d="m 741.57,653.68 c -11.29,-2.8 -22.36,-12.52 -29.97,-26.05 -12.75,-22.59 -7.72,-56.24 11.07,-74.58 8.16,-7.94 14.76,-11.52 24.38,-13.08 13.64,-2.24 25.72,1.57 36.23,11.41 8.72,8.16 15.43,20.46 17.44,31.64 1.79,10.51 0.78,28.63 -2.01,36.56 -4.81,13.31 -15.99,26.05 -28.18,31.98 -7.38,3.69 -19.34,4.58 -28.96,2.12 z"
           id="path13" /><path
           d="m 459.01,492.77 c -17.33,-5.81 -30.86,-19.9 -36.68,-38.24 -3.24,-10.4 -3.47,-29.41 -0.34,-38.58 5.37,-15.88 12.86,-26.05 24.49,-33.66 11.18,-7.27 29.52,-8.61 43.83,-3.24 5.14,2.01 8.5,4.36 14.65,10.51 11.18,11.29 15.77,22.14 16.88,39.81 1.68,27.4 -9.73,49.76 -30.64,60.05 -7.38,3.69 -9.5,4.14 -18,4.47 -5.93,0.22 -11.52,-0.22 -14.2,-1.12 z"
           id="path14" /></g></g></g><rect
     style="display:none;fill:#ebcd89;fill-opacity:1"
     id="rect11-8"
     width="512"
     height="512"
     x="0"
     y="0"
     ry="168.99852" /></svg>
